<svg id="Layer_1" data-name="Layer 1" xmlns="http://www.w3.org/2000/svg" xmlns:xlink="http://www.w3.org/1999/xlink" viewBox="0 0 1345.41 1053.14"><defs><style>.cls-1{fill:#fff;}.cls-2{fill:#f06292;fill-opacity:0.2;}.cls-3{opacity:0.2;}.cls-4{fill:#231f20;}.cls-5{mask:url(#mask);}.cls-6{mask:url(#mask-2);}.cls-7{mask:url(#mask-3);}.cls-8{mask:url(#mask-4);}.cls-9{mask:url(#mask-5);}.cls-10{mask:url(#mask-6);}.cls-11{mask:url(#mask-7);}.cls-12{mask:url(#mask-8);}.cls-13{mask:url(#mask-9);}.cls-14{mask:url(#mask-10);}.cls-15{mask:url(#mask-11);}.cls-16{mask:url(#mask-12);}.cls-17{mask:url(#mask-13);}.cls-18{mask:url(#mask-14);}.cls-19{mask:url(#mask-15);}.cls-20{mask:url(#mask-16);}.cls-21{mask:url(#mask-17);}.cls-22{mask:url(#mask-18);}.cls-23{mask:url(#mask-19);}.cls-24{mask:url(#mask-20);}.cls-25{mask:url(#mask-21);}.cls-26{mask:url(#mask-22);}.cls-27{mask:url(#mask-23);}.cls-28{mask:url(#mask-24);}.cls-29{mask:url(#mask-25);}.cls-30{mask:url(#mask-26-2);}.cls-31{mask:url(#mask-27);}.cls-32{mask:url(#mask-28-2);}.cls-33{mask:url(#mask-29);}.cls-34{mask:url(#mask-30-2);}.cls-35{mask:url(#mask-31);}.cls-36{mask:url(#mask-32-2);}.cls-37{mask:url(#mask-33);}.cls-38{mask:url(#mask-34-2);}.cls-39{mask:url(#mask-35);}.cls-40{mask:url(#mask-36-2);}.cls-41{mask:url(#mask-37);}.cls-42{mask:url(#mask-38-2);}.cls-43{mask:url(#mask-39);}.cls-44{mask:url(#mask-40-2);}.cls-45{mask:url(#mask-41);}.cls-46{mask:url(#mask-42-2);}.cls-47{mask:url(#mask-43);}.cls-48{mask:url(#mask-44-2);}</style><mask id="mask" x="1342.9" y="-2.51" width="5.02" height="5.02" maskUnits="userSpaceOnUse"><g id="mask-26"><polygon id="path-25" class="cls-1" points="1347.92 -2.51 1347.92 2.51 1342.9 2.51 1342.9 -2.51 1347.92 -2.51"/></g></mask><mask id="mask-2" x="1342.9" y="47.64" width="5.02" height="5.02" maskUnits="userSpaceOnUse"><g id="mask-28"><polygon id="path-27" class="cls-1" points="1347.92 47.64 1347.92 52.66 1342.9 52.66 1342.9 47.64 1347.92 47.64"/></g></mask><mask id="mask-3" x="1342.9" y="97.79" width="5.02" height="5.02" maskUnits="userSpaceOnUse"><g id="mask-30"><polygon id="path-29" class="cls-1" points="1347.92 97.79 1347.92 102.81 1342.9 102.81 1342.9 97.79 1347.92 97.79"/></g></mask><mask id="mask-4" x="1342.9" y="147.94" width="5.02" height="5.02" maskUnits="userSpaceOnUse"><g id="mask-32"><polygon id="path-31" class="cls-1" points="1347.92 147.94 1347.92 152.96 1342.9 152.96 1342.9 147.94 1347.92 147.94"/></g></mask><mask id="mask-5" x="1342.9" y="198.09" width="5.02" height="5.02" maskUnits="userSpaceOnUse"><g id="mask-34"><polygon id="path-33" class="cls-1" points="1347.92 198.09 1347.92 203.11 1342.9 203.11 1342.9 198.09 1347.92 198.09"/></g></mask><mask id="mask-6" x="1342.9" y="248.24" width="5.02" height="5.02" maskUnits="userSpaceOnUse"><g id="mask-36"><polygon id="path-35" class="cls-1" points="1347.92 248.24 1347.92 253.26 1342.9 253.26 1342.9 248.24 1347.92 248.24"/></g></mask><mask id="mask-7" x="1342.9" y="298.39" width="5.02" height="5.02" maskUnits="userSpaceOnUse"><g id="mask-38"><polygon id="path-37" class="cls-1" points="1347.92 298.39 1347.92 303.4 1342.9 303.4 1342.9 298.39 1347.92 298.39"/></g></mask><mask id="mask-8" x="1342.9" y="348.54" width="5.02" height="5.02" maskUnits="userSpaceOnUse"><g id="mask-40"><polygon id="path-39" class="cls-1" points="1347.92 348.54 1347.92 353.56 1342.9 353.56 1342.9 348.54 1347.92 348.54"/></g></mask><mask id="mask-9" x="1342.9" y="398.69" width="5.02" height="5.02" maskUnits="userSpaceOnUse"><g id="mask-42"><polygon id="path-41" class="cls-1" points="1347.92 398.69 1347.92 403.7 1342.9 403.7 1342.9 398.69 1347.92 398.69"/></g></mask><mask id="mask-10" x="1342.9" y="448.83" width="5.02" height="5.02" maskUnits="userSpaceOnUse"><g id="mask-44"><polygon id="path-43" class="cls-1" points="1347.92 448.83 1347.92 453.85 1342.9 453.85 1342.9 448.83 1347.92 448.83"/></g></mask><mask id="mask-11" x="1342.9" y="498.98" width="5.02" height="5.02" maskUnits="userSpaceOnUse"><g id="mask-46"><polygon id="path-45" class="cls-1" points="1347.92 498.98 1347.92 504 1342.9 504 1342.9 498.98 1347.92 498.98"/></g></mask><mask id="mask-12" x="1342.9" y="549.13" width="5.02" height="5.02" maskUnits="userSpaceOnUse"><g id="mask-48"><polygon id="path-47" class="cls-1" points="1347.92 549.13 1347.92 554.15 1342.9 554.15 1342.9 549.13 1347.92 549.13"/></g></mask><mask id="mask-13" x="1342.9" y="599.28" width="5.02" height="5.02" maskUnits="userSpaceOnUse"><g id="mask-50"><polygon id="path-49" class="cls-1" points="1347.92 599.28 1347.92 604.3 1342.9 604.3 1342.9 599.28 1347.92 599.28"/></g></mask><mask id="mask-14" x="1342.9" y="649.43" width="5.02" height="5.02" maskUnits="userSpaceOnUse"><g id="mask-52"><polygon id="path-51" class="cls-1" points="1347.92 649.43 1347.92 654.45 1342.9 654.45 1342.9 649.43 1347.92 649.43"/></g></mask><mask id="mask-15" x="1342.9" y="699.58" width="5.02" height="5.02" maskUnits="userSpaceOnUse"><g id="mask-54"><polygon id="path-53" class="cls-1" points="1347.92 699.58 1347.92 704.6 1342.9 704.6 1342.9 699.58 1347.92 699.58"/></g></mask><mask id="mask-16" x="1342.9" y="749.73" width="5.02" height="5.02" maskUnits="userSpaceOnUse"><g id="mask-56"><polygon id="path-55" class="cls-1" points="1347.92 749.73 1347.92 754.75 1342.9 754.75 1342.9 749.73 1347.92 749.73"/></g></mask><mask id="mask-17" x="1342.9" y="799.88" width="5.02" height="5.02" maskUnits="userSpaceOnUse"><g id="mask-58"><polygon id="path-57" class="cls-1" points="1347.92 799.88 1347.92 804.9 1342.9 804.9 1342.9 799.88 1347.92 799.88"/></g></mask><mask id="mask-18" x="1342.9" y="850.03" width="5.02" height="5.02" maskUnits="userSpaceOnUse"><g id="mask-60"><polygon id="path-59" class="cls-1" points="1347.92 850.03 1347.92 855.05 1342.9 855.05 1342.9 850.03 1347.92 850.03"/></g></mask><mask id="mask-19" x="1342.9" y="900.18" width="5.02" height="5.02" maskUnits="userSpaceOnUse"><g id="mask-62"><polygon id="path-61" class="cls-1" points="1347.92 900.18 1347.92 905.2 1342.9 905.2 1342.9 900.18 1347.92 900.18"/></g></mask><mask id="mask-20" x="1342.9" y="950.33" width="5.02" height="5.02" maskUnits="userSpaceOnUse"><g id="mask-64"><polygon id="path-63" class="cls-1" points="1347.92 950.33 1347.92 955.35 1342.9 955.35 1342.9 950.33 1347.92 950.33"/></g></mask><mask id="mask-21" x="1342.9" y="1000.48" width="5.02" height="5.02" maskUnits="userSpaceOnUse"><g id="mask-66"><polygon id="path-65" class="cls-1" points="1347.92 1000.48 1347.92 1005.5 1342.9 1005.5 1342.9 1000.48 1347.92 1000.48"/></g></mask><mask id="mask-22" x="1342.9" y="1050.63" width="5.02" height="5.02" maskUnits="userSpaceOnUse"><g id="mask-68"><polygon id="path-67" class="cls-1" points="1347.92 1050.63 1347.92 1055.65 1342.9 1055.65 1342.9 1050.63 1347.92 1050.63"/></g></mask><mask id="mask-23" x="-2.51" y="-2.51" width="5.02" height="5.02" maskUnits="userSpaceOnUse"><g id="mask-76"><polygon id="path-75" class="cls-1" points="2.51 -2.51 2.51 2.51 -2.51 2.51 -2.51 -2.51 2.51 -2.51"/></g></mask><mask id="mask-24" x="-2.51" y="47.64" width="5.02" height="5.02" maskUnits="userSpaceOnUse"><g id="mask-78"><polygon id="path-77" class="cls-1" points="2.51 47.64 2.51 52.66 -2.51 52.66 -2.51 47.64 2.51 47.64"/></g></mask><mask id="mask-25" x="-2.51" y="97.79" width="5.02" height="5.02" maskUnits="userSpaceOnUse"><g id="mask-80"><polygon id="path-79" class="cls-1" points="2.51 97.79 2.51 102.81 -2.51 102.81 -2.51 97.79 2.51 97.79"/></g></mask><mask id="mask-26-2" x="-2.51" y="147.94" width="5.02" height="5.02" maskUnits="userSpaceOnUse"><g id="mask-82"><polygon id="path-81" class="cls-1" points="2.51 147.94 2.51 152.96 -2.51 152.96 -2.51 147.94 2.51 147.94"/></g></mask><mask id="mask-27" x="-2.51" y="198.09" width="5.02" height="5.02" maskUnits="userSpaceOnUse"><g id="mask-84"><polygon id="path-83" class="cls-1" points="2.51 198.09 2.51 203.11 -2.51 203.11 -2.51 198.09 2.51 198.09"/></g></mask><mask id="mask-28-2" x="-2.51" y="248.24" width="5.02" height="5.02" maskUnits="userSpaceOnUse"><g id="mask-86"><polygon id="path-85" class="cls-1" points="2.51 248.24 2.51 253.26 -2.51 253.26 -2.51 248.24 2.51 248.24"/></g></mask><mask id="mask-29" x="-2.51" y="298.39" width="5.02" height="5.02" maskUnits="userSpaceOnUse"><g id="mask-88"><polygon id="path-87" class="cls-1" points="2.51 298.39 2.51 303.4 -2.51 303.4 -2.51 298.39 2.51 298.39"/></g></mask><mask id="mask-30-2" x="-2.51" y="348.54" width="5.02" height="5.02" maskUnits="userSpaceOnUse"><g id="mask-90"><polygon id="path-89" class="cls-1" points="2.51 348.54 2.51 353.56 -2.51 353.56 -2.51 348.54 2.51 348.54"/></g></mask><mask id="mask-31" x="-2.51" y="398.69" width="5.02" height="5.02" maskUnits="userSpaceOnUse"><g id="mask-92"><polygon id="path-91" class="cls-1" points="2.51 398.69 2.51 403.7 -2.51 403.7 -2.51 398.69 2.51 398.69"/></g></mask><mask id="mask-32-2" x="-2.51" y="448.83" width="5.02" height="5.02" maskUnits="userSpaceOnUse"><g id="mask-94"><polygon id="path-93" class="cls-1" points="2.51 448.83 2.51 453.85 -2.51 453.85 -2.51 448.83 2.51 448.83"/></g></mask><mask id="mask-33" x="-2.51" y="498.98" width="5.02" height="5.02" maskUnits="userSpaceOnUse"><g id="mask-96"><polygon id="path-95" class="cls-1" points="2.51 498.98 2.51 504 -2.51 504 -2.51 498.98 2.51 498.98"/></g></mask><mask id="mask-34-2" x="-2.51" y="549.13" width="5.02" height="5.02" maskUnits="userSpaceOnUse"><g id="mask-98"><polygon id="path-97" class="cls-1" points="2.51 549.13 2.51 554.15 -2.51 554.15 -2.51 549.13 2.51 549.13"/></g></mask><mask id="mask-35" x="-2.51" y="599.28" width="5.02" height="5.02" maskUnits="userSpaceOnUse"><g id="mask-100"><polygon id="path-99" class="cls-1" points="2.51 599.28 2.51 604.3 -2.51 604.3 -2.51 599.28 2.51 599.28"/></g></mask><mask id="mask-36-2" x="-2.51" y="649.43" width="5.02" height="5.02" maskUnits="userSpaceOnUse"><g id="mask-102"><polygon id="path-101" class="cls-1" points="2.51 649.43 2.51 654.45 -2.51 654.45 -2.51 649.43 2.51 649.43"/></g></mask><mask id="mask-37" x="-2.51" y="699.58" width="5.02" height="5.02" maskUnits="userSpaceOnUse"><g id="mask-104"><polygon id="path-103" class="cls-1" points="2.51 699.58 2.51 704.6 -2.51 704.6 -2.51 699.58 2.51 699.58"/></g></mask><mask id="mask-38-2" x="-2.51" y="749.73" width="5.02" height="5.02" maskUnits="userSpaceOnUse"><g id="mask-106"><polygon id="path-105" class="cls-1" points="2.51 749.73 2.51 754.75 -2.51 754.75 -2.51 749.73 2.51 749.73"/></g></mask><mask id="mask-39" x="-2.51" y="799.88" width="5.02" height="5.02" maskUnits="userSpaceOnUse"><g id="mask-108"><polygon id="path-107" class="cls-1" points="2.51 799.88 2.51 804.9 -2.51 804.9 -2.51 799.88 2.51 799.88"/></g></mask><mask id="mask-40-2" x="-2.51" y="850.03" width="5.02" height="5.02" maskUnits="userSpaceOnUse"><g id="mask-110"><polygon id="path-109" class="cls-1" points="2.51 850.03 2.51 855.05 -2.51 855.05 -2.51 850.03 2.51 850.03"/></g></mask><mask id="mask-41" x="-2.51" y="900.18" width="5.02" height="5.02" maskUnits="userSpaceOnUse"><g id="mask-112"><polygon id="path-111" class="cls-1" points="2.51 900.18 2.51 905.2 -2.51 905.2 -2.51 900.18 2.51 900.18"/></g></mask><mask id="mask-42-2" x="-2.51" y="950.33" width="5.02" height="5.02" maskUnits="userSpaceOnUse"><g id="mask-114"><polygon id="path-113" class="cls-1" points="2.51 950.33 2.51 955.35 -2.51 955.35 -2.51 950.33 2.51 950.33"/></g></mask><mask id="mask-43" x="-2.51" y="1000.48" width="5.02" height="5.02" maskUnits="userSpaceOnUse"><g id="mask-116"><polygon id="path-115" class="cls-1" points="2.51 1000.48 2.51 1005.5 -2.51 1005.5 -2.51 1000.48 2.51 1000.48"/></g></mask><mask id="mask-44-2" x="-2.51" y="1050.63" width="5.02" height="5.02" maskUnits="userSpaceOnUse"><g id="mask-118"><polygon id="path-117" class="cls-1" points="2.51 1050.63 2.51 1055.65 -2.51 1055.65 -2.51 1050.63 2.51 1050.63"/></g></mask></defs><title>dotted-bg</title><g id="Page-1"><g id="Artboard"><g id="Group"><g id="pink-circles"><g id="pink-3"><circle id="Oval-Copy" class="cls-2" cx="292.68" cy="677.76" r="24"/><circle id="Oval-Copy-5" class="cls-2" cx="293.18" cy="677.26" r="34.5"/><circle id="Oval" class="cls-2" cx="293.18" cy="678.26" r="14.5"/></g><circle id="Oval-Copy-2" class="cls-2" cx="185.18" cy="126.26" r="21.5"/><circle id="Oval-Copy-3" class="cls-2" cx="1099.18" cy="628.26" r="11.5"/><g id="pink-1"><circle id="Oval-Copy-4" class="cls-2" cx="1207.18" cy="126.26" r="14.5"/><circle id="Oval-Copy-6" class="cls-2" cx="1207.68" cy="126.76" r="25"/></g></g><g id="dotted-bg" class="cls-3"><path id="Fill-1" class="cls-4" d="M754.1,0a2.51,2.51,0,0,0-2.51-2.51A2.51,2.51,0,0,0,749.08,0a2.51,2.51,0,0,0,2.51,2.51A2.51,2.51,0,0,0,754.1,0"/><path id="Fill-3" class="cls-4" d="M754.1,50.15a2.51,2.51,0,1,0-2.51,2.51,2.51,2.51,0,0,0,2.51-2.51"/><path id="Fill-5" class="cls-4" d="M754.1,100.3a2.51,2.51,0,1,0-2.51,2.51,2.51,2.51,0,0,0,2.51-2.51"/><path id="Fill-7" class="cls-4" d="M754.1,150.45a2.51,2.51,0,1,0-2.51,2.51,2.51,2.51,0,0,0,2.51-2.51"/><path id="Fill-9" class="cls-4" d="M754.1,200.6a2.51,2.51,0,1,0-2.51,2.51,2.51,2.51,0,0,0,2.51-2.51"/><path id="Fill-11" class="cls-4" d="M754.1,250.75a2.51,2.51,0,1,0-2.51,2.51,2.51,2.51,0,0,0,2.51-2.51"/><path id="Fill-13" class="cls-4" d="M754.1,300.9a2.51,2.51,0,1,0-2.51,2.51,2.51,2.51,0,0,0,2.51-2.51"/><path id="Fill-15" class="cls-4" d="M754.1,351a2.51,2.51,0,1,0-2.51,2.51A2.51,2.51,0,0,0,754.1,351"/><path id="Fill-17" class="cls-4" d="M754.1,401.2a2.51,2.51,0,1,0-2.51,2.51,2.51,2.51,0,0,0,2.51-2.51"/><path id="Fill-19" class="cls-4" d="M754.1,451.34a2.51,2.51,0,1,0-2.51,2.51,2.51,2.51,0,0,0,2.51-2.51"/><path id="Fill-21" class="cls-4" d="M754.1,501.49a2.51,2.51,0,1,0-2.51,2.51,2.51,2.51,0,0,0,2.51-2.51"/><path id="Fill-23" class="cls-4" d="M754.1,551.64a2.51,2.51,0,1,0-2.51,2.51,2.51,2.51,0,0,0,2.51-2.51"/><path id="Fill-25" class="cls-4" d="M754.1,601.79a2.51,2.51,0,1,0-2.51,2.51,2.51,2.51,0,0,0,2.51-2.51"/><path id="Fill-27" class="cls-4" d="M754.1,651.94a2.51,2.51,0,1,0-2.51,2.51,2.51,2.51,0,0,0,2.51-2.51"/><path id="Fill-29" class="cls-4" d="M754.1,702.09a2.51,2.51,0,1,0-2.51,2.51,2.51,2.51,0,0,0,2.51-2.51"/><path id="Fill-31" class="cls-4" d="M754.1,752.24a2.51,2.51,0,1,0-2.51,2.51,2.51,2.51,0,0,0,2.51-2.51"/><path id="Fill-33" class="cls-4" d="M754.1,802.39a2.51,2.51,0,1,0-2.51,2.51,2.51,2.51,0,0,0,2.51-2.51"/><path id="Fill-35" class="cls-4" d="M754.1,852.54a2.51,2.51,0,1,0-2.51,2.51,2.51,2.51,0,0,0,2.51-2.51"/><path id="Fill-37" class="cls-4" d="M754.1,902.69a2.51,2.51,0,1,0-2.51,2.51,2.51,2.51,0,0,0,2.51-2.51"/><path id="Fill-39" class="cls-4" d="M754.1,952.84a2.51,2.51,0,1,0-2.51,2.51,2.51,2.51,0,0,0,2.51-2.51"/><path id="Fill-41" class="cls-4" d="M754.1,1003a2.51,2.51,0,1,0-2.51,2.51,2.51,2.51,0,0,0,2.51-2.51"/><path id="Fill-43" class="cls-4" d="M754.1,1053.14a2.51,2.51,0,1,0-2.51,2.51,2.51,2.51,0,0,0,2.51-2.51"/><path id="Fill-50" class="cls-4" d="M700.12,0a2.51,2.51,0,0,0-2.51-2.51A2.51,2.51,0,0,0,695.1,0a2.51,2.51,0,0,0,2.51,2.51A2.51,2.51,0,0,0,700.12,0"/><path id="Fill-52" class="cls-4" d="M700.12,50.15a2.51,2.51,0,1,0-2.51,2.51,2.51,2.51,0,0,0,2.51-2.51"/><path id="Fill-54" class="cls-4" d="M700.12,100.3a2.51,2.51,0,1,0-2.51,2.51,2.51,2.51,0,0,0,2.51-2.51"/><path id="Fill-56" class="cls-4" d="M700.12,150.45a2.51,2.51,0,1,0-2.51,2.51,2.51,2.51,0,0,0,2.51-2.51"/><path id="Fill-58" class="cls-4" d="M700.12,200.6a2.51,2.51,0,1,0-2.51,2.51,2.51,2.51,0,0,0,2.51-2.51"/><path id="Fill-60" class="cls-4" d="M700.12,250.75a2.51,2.51,0,1,0-2.51,2.51,2.51,2.51,0,0,0,2.51-2.51"/><path id="Fill-62" class="cls-4" d="M700.12,300.9a2.51,2.51,0,1,0-2.51,2.51,2.51,2.51,0,0,0,2.51-2.51"/><path id="Fill-64" class="cls-4" d="M700.12,351a2.51,2.51,0,1,0-2.51,2.51,2.51,2.51,0,0,0,2.51-2.51"/><path id="Fill-66" class="cls-4" d="M700.12,401.2a2.51,2.51,0,1,0-2.51,2.51,2.51,2.51,0,0,0,2.51-2.51"/><path id="Fill-68" class="cls-4" d="M700.12,451.34a2.51,2.51,0,1,0-2.51,2.51,2.51,2.51,0,0,0,2.51-2.51"/><path id="Fill-70" class="cls-4" d="M700.12,501.49a2.51,2.51,0,1,0-2.51,2.51,2.51,2.51,0,0,0,2.51-2.51"/><path id="Fill-72" class="cls-4" d="M700.12,551.64a2.51,2.51,0,1,0-2.51,2.51,2.51,2.51,0,0,0,2.51-2.51"/><path id="Fill-74" class="cls-4" d="M700.12,601.79a2.51,2.51,0,1,0-2.51,2.51,2.51,2.51,0,0,0,2.51-2.51"/><path id="Fill-76" class="cls-4" d="M700.12,651.94a2.51,2.51,0,1,0-2.51,2.51,2.51,2.51,0,0,0,2.51-2.51"/><path id="Fill-78" class="cls-4" d="M700.12,702.09a2.51,2.51,0,1,0-2.51,2.51,2.51,2.51,0,0,0,2.51-2.51"/><path id="Fill-80" class="cls-4" d="M700.12,752.24a2.51,2.51,0,1,0-2.51,2.51,2.51,2.51,0,0,0,2.51-2.51"/><path id="Fill-82" class="cls-4" d="M700.12,802.39a2.51,2.51,0,1,0-2.51,2.51,2.51,2.51,0,0,0,2.51-2.51"/><path id="Fill-84" class="cls-4" d="M700.12,852.54a2.51,2.51,0,1,0-2.51,2.51,2.51,2.51,0,0,0,2.51-2.51"/><path id="Fill-86" class="cls-4" d="M700.12,902.69a2.51,2.51,0,1,0-2.51,2.51,2.51,2.51,0,0,0,2.51-2.51"/><path id="Fill-88" class="cls-4" d="M700.12,952.84a2.51,2.51,0,1,0-2.51,2.51,2.51,2.51,0,0,0,2.51-2.51"/><path id="Fill-90" class="cls-4" d="M700.12,1003a2.51,2.51,0,1,0-2.51,2.51,2.51,2.51,0,0,0,2.51-2.51"/><path id="Fill-92" class="cls-4" d="M700.12,1053.14a2.51,2.51,0,1,0-2.51,2.51,2.51,2.51,0,0,0,2.51-2.51"/><path id="Fill-99" class="cls-4" d="M808.08,0a2.51,2.51,0,0,0-2.51-2.51A2.51,2.51,0,0,0,803.06,0a2.51,2.51,0,0,0,2.51,2.51A2.51,2.51,0,0,0,808.08,0"/><path id="Fill-101" class="cls-4" d="M808.08,50.15a2.51,2.51,0,1,0-2.51,2.51,2.51,2.51,0,0,0,2.51-2.51"/><path id="Fill-103" class="cls-4" d="M808.08,100.3a2.51,2.51,0,1,0-2.51,2.51,2.51,2.51,0,0,0,2.51-2.51"/><path id="Fill-105" class="cls-4" d="M808.08,150.45a2.51,2.51,0,1,0-2.51,2.51,2.51,2.51,0,0,0,2.51-2.51"/><path id="Fill-107" class="cls-4" d="M808.08,200.6a2.51,2.51,0,1,0-2.51,2.51,2.51,2.51,0,0,0,2.51-2.51"/><path id="Fill-109" class="cls-4" d="M808.08,250.75a2.51,2.51,0,1,0-2.51,2.51,2.51,2.51,0,0,0,2.51-2.51"/><path id="Fill-111" class="cls-4" d="M808.08,300.9a2.51,2.51,0,1,0-2.51,2.51,2.51,2.51,0,0,0,2.51-2.51"/><path id="Fill-113" class="cls-4" d="M808.08,351a2.51,2.51,0,1,0-2.51,2.51,2.51,2.51,0,0,0,2.51-2.51"/><path id="Fill-115" class="cls-4" d="M808.08,401.2a2.51,2.51,0,1,0-2.51,2.51,2.51,2.51,0,0,0,2.51-2.51"/><path id="Fill-117" class="cls-4" d="M808.08,451.34a2.51,2.51,0,1,0-2.51,2.51,2.51,2.51,0,0,0,2.51-2.51"/><path id="Fill-119" class="cls-4" d="M808.08,501.49a2.51,2.51,0,1,0-2.51,2.51,2.51,2.51,0,0,0,2.51-2.51"/><path id="Fill-121" class="cls-4" d="M808.08,551.64a2.51,2.51,0,1,0-2.51,2.51,2.51,2.51,0,0,0,2.51-2.51"/><path id="Fill-123" class="cls-4" d="M808.08,601.79a2.51,2.51,0,1,0-2.51,2.51,2.51,2.51,0,0,0,2.51-2.51"/><path id="Fill-125" class="cls-4" d="M808.08,651.94a2.51,2.51,0,1,0-2.51,2.51,2.51,2.51,0,0,0,2.51-2.51"/><path id="Fill-127" class="cls-4" d="M808.08,702.09a2.51,2.51,0,1,0-2.51,2.51,2.51,2.51,0,0,0,2.51-2.51"/><path id="Fill-129" class="cls-4" d="M808.08,752.24a2.51,2.51,0,1,0-2.51,2.51,2.51,2.51,0,0,0,2.51-2.51"/><path id="Fill-131" class="cls-4" d="M808.08,802.39a2.51,2.51,0,1,0-2.51,2.51,2.51,2.51,0,0,0,2.51-2.51"/><path id="Fill-133" class="cls-4" d="M808.08,852.54a2.51,2.51,0,1,0-2.51,2.51,2.51,2.51,0,0,0,2.51-2.51"/><path id="Fill-135" class="cls-4" d="M808.08,902.69a2.51,2.51,0,1,0-2.51,2.51,2.51,2.51,0,0,0,2.51-2.51"/><path id="Fill-137" class="cls-4" d="M808.08,952.84a2.51,2.51,0,1,0-2.51,2.51,2.51,2.51,0,0,0,2.51-2.51"/><path id="Fill-139" class="cls-4" d="M808.08,1003a2.51,2.51,0,1,0-2.51,2.51,2.51,2.51,0,0,0,2.51-2.51"/><path id="Fill-141" class="cls-4" d="M808.08,1053.14a2.51,2.51,0,1,0-2.51,2.51,2.51,2.51,0,0,0,2.51-2.51"/><path id="Fill-148" class="cls-4" d="M862.07,0a2.51,2.51,0,0,0-2.51-2.51A2.51,2.51,0,0,0,857,0a2.51,2.51,0,0,0,2.51,2.51A2.51,2.51,0,0,0,862.07,0"/><path id="Fill-150" class="cls-4" d="M862.07,50.15a2.51,2.51,0,1,0-2.51,2.51,2.51,2.51,0,0,0,2.51-2.51"/><path id="Fill-152" class="cls-4" d="M862.07,100.3a2.51,2.51,0,1,0-2.51,2.51,2.51,2.51,0,0,0,2.51-2.51"/><path id="Fill-154" class="cls-4" d="M862.07,150.45a2.51,2.51,0,1,0-2.51,2.51,2.51,2.51,0,0,0,2.51-2.51"/><path id="Fill-156" class="cls-4" d="M862.07,200.6a2.51,2.51,0,1,0-2.51,2.51,2.51,2.51,0,0,0,2.51-2.51"/><path id="Fill-158" class="cls-4" d="M862.07,250.75a2.51,2.51,0,1,0-2.51,2.51,2.51,2.51,0,0,0,2.51-2.51"/><path id="Fill-160" class="cls-4" d="M862.07,300.9a2.51,2.51,0,1,0-2.51,2.51,2.51,2.51,0,0,0,2.51-2.51"/><path id="Fill-162" class="cls-4" d="M862.07,351a2.51,2.51,0,1,0-2.51,2.51,2.51,2.51,0,0,0,2.51-2.51"/><path id="Fill-164" class="cls-4" d="M862.07,401.2a2.51,2.51,0,1,0-2.51,2.51,2.51,2.51,0,0,0,2.51-2.51"/><path id="Fill-166" class="cls-4" d="M862.07,451.34a2.51,2.51,0,1,0-2.51,2.51,2.51,2.51,0,0,0,2.51-2.51"/><path id="Fill-168" class="cls-4" d="M862.07,501.49a2.51,2.51,0,1,0-2.51,2.51,2.51,2.51,0,0,0,2.51-2.51"/><path id="Fill-170" class="cls-4" d="M862.07,551.64a2.51,2.51,0,1,0-2.51,2.51,2.51,2.51,0,0,0,2.51-2.51"/><path id="Fill-172" class="cls-4" d="M862.07,601.79a2.51,2.51,0,1,0-2.51,2.51,2.51,2.51,0,0,0,2.51-2.51"/><path id="Fill-174" class="cls-4" d="M862.07,651.94a2.51,2.51,0,1,0-2.51,2.51,2.51,2.51,0,0,0,2.51-2.51"/><path id="Fill-176" class="cls-4" d="M862.07,702.09a2.51,2.51,0,1,0-2.51,2.51,2.51,2.51,0,0,0,2.51-2.51"/><path id="Fill-178" class="cls-4" d="M862.07,752.24a2.51,2.51,0,1,0-2.51,2.51,2.51,2.51,0,0,0,2.51-2.51"/><path id="Fill-180" class="cls-4" d="M862.07,802.39a2.51,2.51,0,1,0-2.51,2.51,2.51,2.51,0,0,0,2.51-2.51"/><path id="Fill-182" class="cls-4" d="M862.07,852.54a2.51,2.51,0,1,0-2.51,2.51,2.51,2.51,0,0,0,2.51-2.51"/><path id="Fill-184" class="cls-4" d="M862.07,902.69a2.51,2.51,0,1,0-2.51,2.51,2.51,2.51,0,0,0,2.51-2.51"/><path id="Fill-186" class="cls-4" d="M862.07,952.84a2.51,2.51,0,1,0-2.51,2.51,2.51,2.51,0,0,0,2.51-2.51"/><path id="Fill-188" class="cls-4" d="M862.07,1003a2.51,2.51,0,1,0-2.51,2.51,2.51,2.51,0,0,0,2.51-2.51"/><path id="Fill-190" class="cls-4" d="M862.07,1053.14a2.51,2.51,0,1,0-2.51,2.51,2.51,2.51,0,0,0,2.51-2.51"/><path id="Fill-197" class="cls-4" d="M916.05,0a2.51,2.51,0,0,0-2.51-2.51A2.51,2.51,0,0,0,911,0a2.51,2.51,0,0,0,2.51,2.51A2.51,2.51,0,0,0,916.05,0"/><path id="Fill-199" class="cls-4" d="M916.05,50.15a2.51,2.51,0,1,0-2.51,2.51,2.51,2.51,0,0,0,2.51-2.51"/><path id="Fill-201" class="cls-4" d="M916.05,100.3a2.51,2.51,0,1,0-2.51,2.51,2.51,2.51,0,0,0,2.51-2.51"/><path id="Fill-203" class="cls-4" d="M916.05,150.45a2.51,2.51,0,1,0-2.51,2.51,2.51,2.51,0,0,0,2.51-2.51"/><path id="Fill-205" class="cls-4" d="M916.05,200.6a2.51,2.51,0,1,0-2.51,2.51,2.51,2.51,0,0,0,2.51-2.51"/><path id="Fill-207" class="cls-4" d="M916.05,250.75a2.51,2.51,0,1,0-2.51,2.51,2.51,2.51,0,0,0,2.51-2.51"/><path id="Fill-209" class="cls-4" d="M916.05,300.9a2.51,2.51,0,1,0-2.51,2.51,2.51,2.51,0,0,0,2.51-2.51"/><path id="Fill-211" class="cls-4" d="M916.05,351a2.51,2.51,0,1,0-2.51,2.51,2.51,2.51,0,0,0,2.51-2.51"/><path id="Fill-213" class="cls-4" d="M916.05,401.2a2.51,2.51,0,1,0-2.51,2.51,2.51,2.51,0,0,0,2.51-2.51"/><path id="Fill-215" class="cls-4" d="M916.05,451.34a2.51,2.51,0,1,0-2.51,2.51,2.51,2.51,0,0,0,2.51-2.51"/><path id="Fill-217" class="cls-4" d="M916.05,501.49a2.51,2.51,0,1,0-2.51,2.51,2.51,2.51,0,0,0,2.51-2.51"/><path id="Fill-219" class="cls-4" d="M916.05,551.64a2.51,2.51,0,1,0-2.51,2.51,2.51,2.51,0,0,0,2.51-2.51"/><path id="Fill-221" class="cls-4" d="M916.05,601.79a2.51,2.51,0,1,0-2.51,2.51,2.51,2.51,0,0,0,2.51-2.51"/><path id="Fill-223" class="cls-4" d="M916.05,651.94a2.51,2.51,0,1,0-2.51,2.51,2.51,2.51,0,0,0,2.51-2.51"/><path id="Fill-225" class="cls-4" d="M916.05,702.09a2.51,2.51,0,1,0-2.51,2.51,2.51,2.51,0,0,0,2.51-2.51"/><path id="Fill-227" class="cls-4" d="M916.05,752.24a2.51,2.51,0,1,0-2.51,2.51,2.51,2.51,0,0,0,2.51-2.51"/><path id="Fill-229" class="cls-4" d="M916.05,802.39a2.51,2.51,0,1,0-2.51,2.51,2.51,2.51,0,0,0,2.51-2.51"/><path id="Fill-231" class="cls-4" d="M916.05,852.54a2.51,2.51,0,1,0-2.51,2.51,2.51,2.51,0,0,0,2.51-2.51"/><path id="Fill-233" class="cls-4" d="M916.05,902.69a2.51,2.51,0,1,0-2.51,2.51,2.51,2.51,0,0,0,2.51-2.51"/><path id="Fill-235" class="cls-4" d="M916.05,952.84a2.51,2.51,0,1,0-2.51,2.51,2.51,2.51,0,0,0,2.51-2.51"/><path id="Fill-237" class="cls-4" d="M916.05,1003a2.51,2.51,0,1,0-2.51,2.51,2.51,2.51,0,0,0,2.51-2.51"/><path id="Fill-239" class="cls-4" d="M916.05,1053.14a2.51,2.51,0,1,0-2.51,2.51,2.51,2.51,0,0,0,2.51-2.51"/><path id="Fill-246" class="cls-4" d="M1024,0a2.51,2.51,0,0,0-2.51-2.51A2.51,2.51,0,0,0,1019,0a2.51,2.51,0,0,0,2.51,2.51A2.51,2.51,0,0,0,1024,0"/><path id="Fill-248" class="cls-4" d="M1024,50.15a2.51,2.51,0,1,0-2.51,2.51,2.51,2.51,0,0,0,2.51-2.51"/><path id="Fill-250" class="cls-4" d="M1024,100.3a2.51,2.51,0,1,0-2.51,2.51,2.51,2.51,0,0,0,2.51-2.51"/><path id="Fill-252" class="cls-4" d="M1024,150.45a2.51,2.51,0,1,0-2.51,2.51,2.51,2.51,0,0,0,2.51-2.51"/><path id="Fill-254" class="cls-4" d="M1024,200.6a2.51,2.51,0,1,0-2.51,2.51,2.51,2.51,0,0,0,2.51-2.51"/><path id="Fill-256" class="cls-4" d="M1024,250.75a2.51,2.51,0,1,0-2.51,2.51,2.51,2.51,0,0,0,2.51-2.51"/><path id="Fill-258" class="cls-4" d="M1024,300.9a2.51,2.51,0,1,0-2.51,2.51,2.51,2.51,0,0,0,2.51-2.51"/><path id="Fill-260" class="cls-4" d="M1024,351a2.51,2.51,0,1,0-2.51,2.51A2.51,2.51,0,0,0,1024,351"/><path id="Fill-262" class="cls-4" d="M1024,401.2a2.51,2.51,0,1,0-2.51,2.51,2.51,2.51,0,0,0,2.51-2.51"/><path id="Fill-264" class="cls-4" d="M1024,451.34a2.51,2.51,0,1,0-2.51,2.51,2.51,2.51,0,0,0,2.51-2.51"/><path id="Fill-266" class="cls-4" d="M1024,501.49a2.51,2.51,0,1,0-2.51,2.51,2.51,2.51,0,0,0,2.51-2.51"/><path id="Fill-268" class="cls-4" d="M1024,551.64a2.51,2.51,0,1,0-2.51,2.51,2.51,2.51,0,0,0,2.51-2.51"/><path id="Fill-270" class="cls-4" d="M1024,601.79a2.51,2.51,0,1,0-2.51,2.51,2.51,2.51,0,0,0,2.51-2.51"/><path id="Fill-272" class="cls-4" d="M1024,651.94a2.51,2.51,0,1,0-2.51,2.51,2.51,2.51,0,0,0,2.51-2.51"/><path id="Fill-274" class="cls-4" d="M1024,702.09a2.51,2.51,0,1,0-2.51,2.51,2.51,2.51,0,0,0,2.51-2.51"/><path id="Fill-276" class="cls-4" d="M1024,752.24a2.51,2.51,0,1,0-2.51,2.51,2.51,2.51,0,0,0,2.51-2.51"/><path id="Fill-278" class="cls-4" d="M1024,802.39a2.51,2.51,0,1,0-2.51,2.51,2.51,2.51,0,0,0,2.51-2.51"/><path id="Fill-280" class="cls-4" d="M1024,852.54a2.51,2.51,0,1,0-2.51,2.51,2.51,2.51,0,0,0,2.51-2.51"/><path id="Fill-282" class="cls-4" d="M1024,902.69a2.51,2.51,0,1,0-2.51,2.51,2.51,2.51,0,0,0,2.51-2.51"/><path id="Fill-284" class="cls-4" d="M1024,952.84a2.51,2.51,0,1,0-2.51,2.51,2.51,2.51,0,0,0,2.51-2.51"/><path id="Fill-286" class="cls-4" d="M1024,1003a2.51,2.51,0,1,0-2.51,2.51A2.51,2.51,0,0,0,1024,1003"/><path id="Fill-288" class="cls-4" d="M1024,1053.14a2.51,2.51,0,1,0-2.51,2.51,2.51,2.51,0,0,0,2.51-2.51"/><path id="Fill-295" class="cls-4" d="M970,0a2.51,2.51,0,0,0-2.51-2.51A2.51,2.51,0,0,0,965,0a2.51,2.51,0,0,0,2.51,2.51A2.51,2.51,0,0,0,970,0"/><path id="Fill-297" class="cls-4" d="M970,50.15a2.51,2.51,0,1,0-2.51,2.51A2.51,2.51,0,0,0,970,50.15"/><path id="Fill-299" class="cls-4" d="M970,100.3a2.51,2.51,0,1,0-2.51,2.51A2.51,2.51,0,0,0,970,100.3"/><path id="Fill-301" class="cls-4" d="M970,150.45a2.51,2.51,0,1,0-2.51,2.51,2.51,2.51,0,0,0,2.51-2.51"/><path id="Fill-303" class="cls-4" d="M970,200.6a2.51,2.51,0,1,0-2.51,2.51A2.51,2.51,0,0,0,970,200.6"/><path id="Fill-305" class="cls-4" d="M970,250.75a2.51,2.51,0,1,0-2.51,2.51,2.51,2.51,0,0,0,2.51-2.51"/><path id="Fill-307" class="cls-4" d="M970,300.9a2.51,2.51,0,1,0-2.51,2.51A2.51,2.51,0,0,0,970,300.9"/><path id="Fill-309" class="cls-4" d="M970,351a2.51,2.51,0,1,0-2.51,2.51A2.51,2.51,0,0,0,970,351"/><path id="Fill-311" class="cls-4" d="M970,401.2a2.51,2.51,0,1,0-2.51,2.51A2.51,2.51,0,0,0,970,401.2"/><path id="Fill-313" class="cls-4" d="M970,451.34a2.51,2.51,0,1,0-2.51,2.51,2.51,2.51,0,0,0,2.51-2.51"/><path id="Fill-315" class="cls-4" d="M970,501.49a2.51,2.51,0,1,0-2.51,2.51,2.51,2.51,0,0,0,2.51-2.51"/><path id="Fill-317" class="cls-4" d="M970,551.64a2.51,2.51,0,1,0-2.51,2.51,2.51,2.51,0,0,0,2.51-2.51"/><path id="Fill-319" class="cls-4" d="M970,601.79a2.51,2.51,0,1,0-2.51,2.51,2.51,2.51,0,0,0,2.51-2.51"/><path id="Fill-321" class="cls-4" d="M970,651.94a2.51,2.51,0,1,0-2.51,2.51,2.51,2.51,0,0,0,2.51-2.51"/><path id="Fill-323" class="cls-4" d="M970,702.09a2.51,2.51,0,1,0-2.51,2.51,2.51,2.51,0,0,0,2.51-2.51"/><path id="Fill-325" class="cls-4" d="M970,752.24a2.51,2.51,0,1,0-2.51,2.51,2.51,2.51,0,0,0,2.51-2.51"/><path id="Fill-327" class="cls-4" d="M970,802.39a2.51,2.51,0,1,0-2.51,2.51,2.51,2.51,0,0,0,2.51-2.51"/><path id="Fill-329" class="cls-4" d="M970,852.54a2.51,2.51,0,1,0-2.51,2.51,2.51,2.51,0,0,0,2.51-2.51"/><path id="Fill-331" class="cls-4" d="M970,902.69a2.51,2.51,0,1,0-2.51,2.51,2.51,2.51,0,0,0,2.51-2.51"/><path id="Fill-333" class="cls-4" d="M970,952.84a2.51,2.51,0,1,0-2.51,2.51,2.51,2.51,0,0,0,2.51-2.51"/><path id="Fill-335" class="cls-4" d="M970,1003a2.51,2.51,0,1,0-2.51,2.51A2.51,2.51,0,0,0,970,1003"/><path id="Fill-337" class="cls-4" d="M970,1053.14a2.51,2.51,0,1,0-2.51,2.51,2.51,2.51,0,0,0,2.51-2.51"/><path id="Fill-344" class="cls-4" d="M1078,0a2.51,2.51,0,0,0-2.51-2.51A2.51,2.51,0,0,0,1073,0a2.51,2.51,0,0,0,2.51,2.51A2.51,2.51,0,0,0,1078,0"/><path id="Fill-346" class="cls-4" d="M1078,50.15a2.51,2.51,0,1,0-2.51,2.51,2.51,2.51,0,0,0,2.51-2.51"/><path id="Fill-348" class="cls-4" d="M1078,100.3a2.51,2.51,0,1,0-2.51,2.51,2.51,2.51,0,0,0,2.51-2.51"/><path id="Fill-350" class="cls-4" d="M1078,150.45a2.51,2.51,0,1,0-2.51,2.51,2.51,2.51,0,0,0,2.51-2.51"/><path id="Fill-352" class="cls-4" d="M1078,200.6a2.51,2.51,0,1,0-2.51,2.51,2.51,2.51,0,0,0,2.51-2.51"/><path id="Fill-354" class="cls-4" d="M1078,250.75a2.51,2.51,0,1,0-2.51,2.51,2.51,2.51,0,0,0,2.51-2.51"/><path id="Fill-356" class="cls-4" d="M1078,300.9a2.51,2.51,0,1,0-2.51,2.51,2.51,2.51,0,0,0,2.51-2.51"/><path id="Fill-358" class="cls-4" d="M1078,351a2.51,2.51,0,1,0-2.51,2.51A2.51,2.51,0,0,0,1078,351"/><path id="Fill-360" class="cls-4" d="M1078,401.2a2.51,2.51,0,1,0-2.51,2.51,2.51,2.51,0,0,0,2.51-2.51"/><path id="Fill-362" class="cls-4" d="M1078,451.34a2.51,2.51,0,1,0-2.51,2.51,2.51,2.51,0,0,0,2.51-2.51"/><path id="Fill-364" class="cls-4" d="M1078,501.49a2.51,2.51,0,1,0-2.51,2.51,2.51,2.51,0,0,0,2.51-2.51"/><path id="Fill-366" class="cls-4" d="M1078,551.64a2.51,2.51,0,1,0-2.51,2.51,2.51,2.51,0,0,0,2.51-2.51"/><path id="Fill-368" class="cls-4" d="M1078,601.79a2.51,2.51,0,1,0-2.51,2.51,2.51,2.51,0,0,0,2.51-2.51"/><path id="Fill-370" class="cls-4" d="M1078,651.94a2.51,2.51,0,1,0-2.51,2.51,2.51,2.51,0,0,0,2.51-2.51"/><path id="Fill-372" class="cls-4" d="M1078,702.09a2.51,2.51,0,1,0-2.51,2.51,2.51,2.51,0,0,0,2.51-2.51"/><path id="Fill-374" class="cls-4" d="M1078,752.24a2.51,2.51,0,1,0-2.51,2.51,2.51,2.51,0,0,0,2.51-2.51"/><path id="Fill-376" class="cls-4" d="M1078,802.39a2.51,2.51,0,1,0-2.51,2.51,2.51,2.51,0,0,0,2.51-2.51"/><path id="Fill-378" class="cls-4" d="M1078,852.54a2.51,2.51,0,1,0-2.51,2.51,2.51,2.51,0,0,0,2.51-2.51"/><path id="Fill-380" class="cls-4" d="M1078,902.69a2.51,2.51,0,1,0-2.51,2.51,2.51,2.51,0,0,0,2.51-2.51"/><path id="Fill-382" class="cls-4" d="M1078,952.84a2.51,2.51,0,1,0-2.51,2.51,2.51,2.51,0,0,0,2.51-2.51"/><path id="Fill-384" class="cls-4" d="M1078,1003a2.51,2.51,0,1,0-2.51,2.51A2.51,2.51,0,0,0,1078,1003"/><path id="Fill-386" class="cls-4" d="M1078,1053.14a2.51,2.51,0,1,0-2.51,2.51,2.51,2.51,0,0,0,2.51-2.51"/><path id="Fill-393" class="cls-4" d="M1132,0a2.51,2.51,0,0,0-2.51-2.51A2.51,2.51,0,0,0,1127,0a2.51,2.51,0,0,0,2.51,2.51A2.51,2.51,0,0,0,1132,0"/><path id="Fill-395" class="cls-4" d="M1132,50.15a2.51,2.51,0,1,0-2.51,2.51,2.51,2.51,0,0,0,2.51-2.51"/><path id="Fill-397" class="cls-4" d="M1132,100.3a2.51,2.51,0,1,0-2.51,2.51,2.51,2.51,0,0,0,2.51-2.51"/><path id="Fill-399" class="cls-4" d="M1132,150.45a2.51,2.51,0,1,0-2.51,2.51,2.51,2.51,0,0,0,2.51-2.51"/><path id="Fill-401" class="cls-4" d="M1132,200.6a2.51,2.51,0,1,0-2.51,2.51,2.51,2.51,0,0,0,2.51-2.51"/><path id="Fill-403" class="cls-4" d="M1132,250.75a2.51,2.51,0,1,0-2.51,2.51,2.51,2.51,0,0,0,2.51-2.51"/><path id="Fill-405" class="cls-4" d="M1132,300.9a2.51,2.51,0,1,0-2.51,2.51,2.51,2.51,0,0,0,2.51-2.51"/><path id="Fill-407" class="cls-4" d="M1132,351a2.51,2.51,0,1,0-2.51,2.51A2.51,2.51,0,0,0,1132,351"/><path id="Fill-409" class="cls-4" d="M1132,401.2a2.51,2.51,0,1,0-2.51,2.51,2.51,2.51,0,0,0,2.51-2.51"/><path id="Fill-411" class="cls-4" d="M1132,451.34a2.51,2.51,0,1,0-2.51,2.51,2.51,2.51,0,0,0,2.51-2.51"/><path id="Fill-413" class="cls-4" d="M1132,501.49a2.51,2.51,0,1,0-2.51,2.51,2.51,2.51,0,0,0,2.51-2.51"/><path id="Fill-415" class="cls-4" d="M1132,551.64a2.51,2.51,0,1,0-2.51,2.51,2.51,2.51,0,0,0,2.51-2.51"/><path id="Fill-417" class="cls-4" d="M1132,601.79a2.51,2.51,0,1,0-2.51,2.51,2.51,2.51,0,0,0,2.51-2.51"/><path id="Fill-419" class="cls-4" d="M1132,651.94a2.51,2.51,0,1,0-2.51,2.51,2.51,2.51,0,0,0,2.51-2.51"/><path id="Fill-421" class="cls-4" d="M1132,702.09a2.51,2.51,0,1,0-2.51,2.51,2.51,2.51,0,0,0,2.51-2.51"/><path id="Fill-423" class="cls-4" d="M1132,752.24a2.51,2.51,0,1,0-2.51,2.51,2.51,2.51,0,0,0,2.51-2.51"/><path id="Fill-425" class="cls-4" d="M1132,802.39a2.51,2.51,0,1,0-2.51,2.51,2.51,2.51,0,0,0,2.51-2.51"/><path id="Fill-427" class="cls-4" d="M1132,852.54a2.51,2.51,0,1,0-2.51,2.51,2.51,2.51,0,0,0,2.51-2.51"/><path id="Fill-429" class="cls-4" d="M1132,902.69a2.51,2.51,0,1,0-2.51,2.51,2.51,2.51,0,0,0,2.51-2.51"/><path id="Fill-431" class="cls-4" d="M1132,952.84a2.51,2.51,0,1,0-2.51,2.51,2.51,2.51,0,0,0,2.51-2.51"/><path id="Fill-433" class="cls-4" d="M1132,1003a2.51,2.51,0,1,0-2.51,2.51A2.51,2.51,0,0,0,1132,1003"/><path id="Fill-435" class="cls-4" d="M1132,1053.14a2.51,2.51,0,1,0-2.51,2.51,2.51,2.51,0,0,0,2.51-2.51"/><path id="Fill-442" class="cls-4" d="M1186,0a2.51,2.51,0,0,0-2.51-2.51A2.51,2.51,0,0,0,1180.95,0a2.51,2.51,0,0,0,2.51,2.51A2.51,2.51,0,0,0,1186,0"/><path id="Fill-444" class="cls-4" d="M1186,50.15a2.51,2.51,0,1,0-2.51,2.51,2.51,2.51,0,0,0,2.51-2.51"/><path id="Fill-446" class="cls-4" d="M1186,100.3a2.51,2.51,0,1,0-2.51,2.51,2.51,2.51,0,0,0,2.51-2.51"/><path id="Fill-448" class="cls-4" d="M1186,150.45a2.51,2.51,0,1,0-2.51,2.51,2.51,2.51,0,0,0,2.51-2.51"/><path id="Fill-450" class="cls-4" d="M1186,200.6a2.51,2.51,0,1,0-2.51,2.51,2.51,2.51,0,0,0,2.51-2.51"/><path id="Fill-452" class="cls-4" d="M1186,250.75a2.51,2.51,0,1,0-2.51,2.51,2.51,2.51,0,0,0,2.51-2.51"/><path id="Fill-454" class="cls-4" d="M1186,300.9a2.51,2.51,0,1,0-2.51,2.51,2.51,2.51,0,0,0,2.51-2.51"/><path id="Fill-456" class="cls-4" d="M1186,351a2.51,2.51,0,1,0-2.51,2.51A2.51,2.51,0,0,0,1186,351"/><path id="Fill-458" class="cls-4" d="M1186,401.2a2.51,2.51,0,1,0-2.51,2.51,2.51,2.51,0,0,0,2.51-2.51"/><path id="Fill-460" class="cls-4" d="M1186,451.34a2.51,2.51,0,1,0-2.51,2.51,2.51,2.51,0,0,0,2.51-2.51"/><path id="Fill-462" class="cls-4" d="M1186,501.49a2.51,2.51,0,1,0-2.51,2.51,2.51,2.51,0,0,0,2.51-2.51"/><path id="Fill-464" class="cls-4" d="M1186,551.64a2.51,2.51,0,1,0-2.51,2.51,2.51,2.51,0,0,0,2.51-2.51"/><path id="Fill-466" class="cls-4" d="M1186,601.79a2.51,2.51,0,1,0-2.51,2.51,2.51,2.51,0,0,0,2.51-2.51"/><path id="Fill-468" class="cls-4" d="M1186,651.94a2.51,2.51,0,1,0-2.51,2.51,2.51,2.51,0,0,0,2.51-2.51"/><path id="Fill-470" class="cls-4" d="M1186,702.09a2.51,2.51,0,1,0-2.51,2.51,2.51,2.51,0,0,0,2.51-2.51"/><path id="Fill-472" class="cls-4" d="M1186,752.24a2.51,2.51,0,1,0-2.51,2.51,2.51,2.51,0,0,0,2.51-2.51"/><path id="Fill-474" class="cls-4" d="M1186,802.39a2.51,2.51,0,1,0-2.51,2.51,2.51,2.51,0,0,0,2.51-2.51"/><path id="Fill-476" class="cls-4" d="M1186,852.54a2.51,2.51,0,1,0-2.51,2.51,2.51,2.51,0,0,0,2.51-2.51"/><path id="Fill-478" class="cls-4" d="M1186,902.69a2.51,2.51,0,1,0-2.51,2.51,2.51,2.51,0,0,0,2.51-2.51"/><path id="Fill-480" class="cls-4" d="M1186,952.84a2.51,2.51,0,1,0-2.51,2.51,2.51,2.51,0,0,0,2.51-2.51"/><path id="Fill-482" class="cls-4" d="M1186,1003a2.51,2.51,0,1,0-2.51,2.51A2.51,2.51,0,0,0,1186,1003"/><path id="Fill-484" class="cls-4" d="M1186,1053.14a2.51,2.51,0,1,0-2.51,2.51,2.51,2.51,0,0,0,2.51-2.51"/><path id="Fill-491" class="cls-4" d="M1240,0a2.51,2.51,0,0,0-2.51-2.51A2.51,2.51,0,0,0,1234.93,0a2.51,2.51,0,0,0,2.51,2.51A2.51,2.51,0,0,0,1240,0"/><path id="Fill-493" class="cls-4" d="M1240,50.15a2.51,2.51,0,1,0-2.51,2.51,2.51,2.51,0,0,0,2.51-2.51"/><path id="Fill-495" class="cls-4" d="M1240,100.3a2.51,2.51,0,1,0-2.51,2.51,2.51,2.51,0,0,0,2.51-2.51"/><path id="Fill-497" class="cls-4" d="M1240,150.45a2.51,2.51,0,1,0-2.51,2.51,2.51,2.51,0,0,0,2.51-2.51"/><path id="Fill-499" class="cls-4" d="M1240,200.6a2.51,2.51,0,1,0-2.51,2.51,2.51,2.51,0,0,0,2.51-2.51"/><path id="Fill-501" class="cls-4" d="M1240,250.75a2.51,2.51,0,1,0-2.51,2.51,2.51,2.51,0,0,0,2.51-2.51"/><path id="Fill-503" class="cls-4" d="M1240,300.9a2.51,2.51,0,1,0-2.51,2.51,2.51,2.51,0,0,0,2.51-2.51"/><path id="Fill-505" class="cls-4" d="M1240,351a2.51,2.51,0,1,0-2.51,2.51A2.51,2.51,0,0,0,1240,351"/><path id="Fill-507" class="cls-4" d="M1240,401.2a2.51,2.51,0,1,0-2.51,2.51,2.51,2.51,0,0,0,2.51-2.51"/><path id="Fill-509" class="cls-4" d="M1240,451.34a2.51,2.51,0,1,0-2.51,2.51,2.51,2.51,0,0,0,2.51-2.51"/><path id="Fill-511" class="cls-4" d="M1240,501.49a2.51,2.51,0,1,0-2.51,2.51,2.51,2.51,0,0,0,2.51-2.51"/><path id="Fill-513" class="cls-4" d="M1240,551.64a2.51,2.51,0,1,0-2.51,2.51,2.51,2.51,0,0,0,2.51-2.51"/><path id="Fill-515" class="cls-4" d="M1240,601.79a2.51,2.51,0,1,0-2.51,2.51,2.51,2.51,0,0,0,2.51-2.51"/><path id="Fill-517" class="cls-4" d="M1240,651.94a2.51,2.51,0,1,0-2.51,2.51,2.51,2.51,0,0,0,2.51-2.51"/><path id="Fill-519" class="cls-4" d="M1240,702.09a2.51,2.51,0,1,0-2.51,2.51,2.51,2.51,0,0,0,2.51-2.51"/><path id="Fill-521" class="cls-4" d="M1240,752.24a2.51,2.51,0,1,0-2.51,2.51,2.51,2.51,0,0,0,2.51-2.51"/><path id="Fill-523" class="cls-4" d="M1240,802.39a2.51,2.51,0,1,0-2.51,2.51,2.51,2.51,0,0,0,2.51-2.51"/><path id="Fill-525" class="cls-4" d="M1240,852.54a2.51,2.51,0,1,0-2.51,2.51,2.51,2.51,0,0,0,2.51-2.51"/><path id="Fill-527" class="cls-4" d="M1240,902.69a2.51,2.51,0,1,0-2.51,2.51,2.51,2.51,0,0,0,2.51-2.51"/><path id="Fill-529" class="cls-4" d="M1240,952.84a2.51,2.51,0,1,0-2.51,2.51,2.51,2.51,0,0,0,2.51-2.51"/><path id="Fill-531" class="cls-4" d="M1240,1003a2.51,2.51,0,1,0-2.51,2.51A2.51,2.51,0,0,0,1240,1003"/><path id="Fill-533" class="cls-4" d="M1240,1053.14a2.51,2.51,0,1,0-2.51,2.51,2.51,2.51,0,0,0,2.51-2.51"/><path id="Fill-540" class="cls-4" d="M1293.93,0a2.51,2.51,0,0,0-2.51-2.51A2.51,2.51,0,0,0,1288.92,0a2.51,2.51,0,0,0,2.51,2.51A2.51,2.51,0,0,0,1293.93,0"/><path id="Fill-542" class="cls-4" d="M1293.93,50.15a2.51,2.51,0,1,0-2.51,2.51,2.51,2.51,0,0,0,2.51-2.51"/><path id="Fill-544" class="cls-4" d="M1293.93,100.3a2.51,2.51,0,1,0-2.51,2.51,2.51,2.51,0,0,0,2.51-2.51"/><path id="Fill-546" class="cls-4" d="M1293.93,150.45a2.51,2.51,0,1,0-2.51,2.51,2.51,2.51,0,0,0,2.51-2.51"/><path id="Fill-548" class="cls-4" d="M1293.93,200.6a2.51,2.51,0,1,0-2.51,2.51,2.51,2.51,0,0,0,2.51-2.51"/><path id="Fill-550" class="cls-4" d="M1293.93,250.75a2.51,2.51,0,1,0-2.51,2.51,2.51,2.51,0,0,0,2.51-2.51"/><path id="Fill-552" class="cls-4" d="M1293.93,300.9a2.51,2.51,0,1,0-2.51,2.51,2.51,2.51,0,0,0,2.51-2.51"/><path id="Fill-554" class="cls-4" d="M1293.93,351a2.51,2.51,0,1,0-2.51,2.51,2.51,2.51,0,0,0,2.51-2.51"/><path id="Fill-556" class="cls-4" d="M1293.93,401.2a2.51,2.51,0,1,0-2.51,2.51,2.51,2.51,0,0,0,2.51-2.51"/><path id="Fill-558" class="cls-4" d="M1293.93,451.34a2.51,2.51,0,1,0-2.51,2.51,2.51,2.51,0,0,0,2.51-2.51"/><path id="Fill-560" class="cls-4" d="M1293.93,501.49a2.51,2.51,0,1,0-2.51,2.51,2.51,2.51,0,0,0,2.51-2.51"/><path id="Fill-562" class="cls-4" d="M1293.93,551.64a2.51,2.51,0,1,0-2.51,2.51,2.51,2.51,0,0,0,2.51-2.51"/><path id="Fill-564" class="cls-4" d="M1293.93,601.79a2.51,2.51,0,1,0-2.51,2.51,2.51,2.51,0,0,0,2.51-2.51"/><path id="Fill-566" class="cls-4" d="M1293.93,651.94a2.51,2.51,0,1,0-2.51,2.51,2.51,2.51,0,0,0,2.51-2.51"/><path id="Fill-568" class="cls-4" d="M1293.93,702.09a2.51,2.51,0,1,0-2.51,2.51,2.51,2.51,0,0,0,2.51-2.51"/><path id="Fill-570" class="cls-4" d="M1293.93,752.24a2.51,2.51,0,1,0-2.51,2.51,2.51,2.51,0,0,0,2.51-2.51"/><path id="Fill-572" class="cls-4" d="M1293.93,802.39a2.51,2.51,0,1,0-2.51,2.51,2.51,2.51,0,0,0,2.51-2.51"/><path id="Fill-574" class="cls-4" d="M1293.93,852.54a2.51,2.51,0,1,0-2.51,2.51,2.51,2.51,0,0,0,2.51-2.51"/><path id="Fill-576" class="cls-4" d="M1293.93,902.69a2.51,2.51,0,1,0-2.51,2.51,2.51,2.51,0,0,0,2.51-2.51"/><path id="Fill-578" class="cls-4" d="M1293.93,952.84a2.51,2.51,0,1,0-2.51,2.51,2.51,2.51,0,0,0,2.51-2.51"/><path id="Fill-580" class="cls-4" d="M1293.93,1003a2.51,2.51,0,1,0-2.51,2.51,2.51,2.51,0,0,0,2.51-2.51"/><path id="Fill-582" class="cls-4" d="M1293.93,1053.14a2.51,2.51,0,1,0-2.51,2.51,2.51,2.51,0,0,0,2.51-2.51"/><g id="Group-591"><g class="cls-5"><path id="Fill-589" class="cls-4" d="M1347.92,0a2.51,2.51,0,0,0-2.51-2.51A2.51,2.51,0,0,0,1342.9,0a2.51,2.51,0,0,0,2.51,2.51A2.51,2.51,0,0,0,1347.92,0"/></g></g><g id="Group-594"><g class="cls-6"><path id="Fill-592" class="cls-4" d="M1347.92,50.15a2.51,2.51,0,1,0-2.51,2.51,2.51,2.51,0,0,0,2.51-2.51"/></g></g><g id="Group-597"><g class="cls-7"><path id="Fill-595" class="cls-4" d="M1347.92,100.3a2.51,2.51,0,1,0-2.51,2.51,2.51,2.51,0,0,0,2.51-2.51"/></g></g><g id="Group-600"><g class="cls-8"><path id="Fill-598" class="cls-4" d="M1347.92,150.45a2.51,2.51,0,1,0-2.51,2.51,2.51,2.51,0,0,0,2.51-2.51"/></g></g><g id="Group-603"><g class="cls-9"><path id="Fill-601" class="cls-4" d="M1347.92,200.6a2.51,2.51,0,1,0-2.51,2.51,2.51,2.51,0,0,0,2.51-2.51"/></g></g><g id="Group-606"><g class="cls-10"><path id="Fill-604" class="cls-4" d="M1347.92,250.75a2.51,2.51,0,1,0-2.51,2.51,2.51,2.51,0,0,0,2.51-2.51"/></g></g><g id="Group-609"><g class="cls-11"><path id="Fill-607" class="cls-4" d="M1347.92,300.9a2.51,2.51,0,1,0-2.51,2.51,2.51,2.51,0,0,0,2.51-2.51"/></g></g><g id="Group-612"><g class="cls-12"><path id="Fill-610" class="cls-4" d="M1347.92,351a2.51,2.51,0,1,0-2.51,2.51,2.51,2.51,0,0,0,2.51-2.51"/></g></g><g id="Group-615"><g class="cls-13"><path id="Fill-613" class="cls-4" d="M1347.92,401.2a2.51,2.51,0,1,0-2.51,2.51,2.51,2.51,0,0,0,2.51-2.51"/></g></g><g id="Group-618"><g class="cls-14"><path id="Fill-616" class="cls-4" d="M1347.92,451.34a2.51,2.51,0,1,0-2.51,2.51,2.51,2.51,0,0,0,2.51-2.51"/></g></g><g id="Group-621"><g class="cls-15"><path id="Fill-619" class="cls-4" d="M1347.92,501.49a2.51,2.51,0,1,0-2.51,2.51,2.51,2.51,0,0,0,2.51-2.51"/></g></g><g id="Group-624"><g class="cls-16"><path id="Fill-622" class="cls-4" d="M1347.92,551.64a2.51,2.51,0,1,0-2.51,2.51,2.51,2.51,0,0,0,2.51-2.51"/></g></g><g id="Group-627"><g class="cls-17"><path id="Fill-625" class="cls-4" d="M1347.92,601.79a2.51,2.51,0,1,0-2.51,2.51,2.51,2.51,0,0,0,2.51-2.51"/></g></g><g id="Group-630"><g class="cls-18"><path id="Fill-628" class="cls-4" d="M1347.92,651.94a2.51,2.51,0,1,0-2.51,2.51,2.51,2.51,0,0,0,2.51-2.51"/></g></g><g id="Group-633"><g class="cls-19"><path id="Fill-631" class="cls-4" d="M1347.92,702.09a2.51,2.51,0,1,0-2.51,2.51,2.51,2.51,0,0,0,2.51-2.51"/></g></g><g id="Group-636"><g class="cls-20"><path id="Fill-634" class="cls-4" d="M1347.92,752.24a2.51,2.51,0,1,0-2.51,2.51,2.51,2.51,0,0,0,2.51-2.51"/></g></g><g id="Group-639"><g class="cls-21"><path id="Fill-637" class="cls-4" d="M1347.92,802.39a2.51,2.51,0,1,0-2.51,2.51,2.51,2.51,0,0,0,2.51-2.51"/></g></g><g id="Group-642"><g class="cls-22"><path id="Fill-640" class="cls-4" d="M1347.92,852.54a2.51,2.51,0,1,0-2.51,2.51,2.51,2.51,0,0,0,2.51-2.51"/></g></g><g id="Group-645"><g class="cls-23"><path id="Fill-643" class="cls-4" d="M1347.92,902.69a2.51,2.51,0,1,0-2.51,2.51,2.51,2.51,0,0,0,2.51-2.51"/></g></g><g id="Group-648"><g class="cls-24"><path id="Fill-646" class="cls-4" d="M1347.92,952.84a2.51,2.51,0,1,0-2.51,2.51,2.51,2.51,0,0,0,2.51-2.51"/></g></g><g id="Group-651"><g class="cls-25"><path id="Fill-649" class="cls-4" d="M1347.92,1003a2.51,2.51,0,1,0-2.51,2.51,2.51,2.51,0,0,0,2.51-2.51"/></g></g><g id="Group-654"><g class="cls-26"><path id="Fill-652" class="cls-4" d="M1347.92,1053.14a2.51,2.51,0,1,0-2.51,2.51,2.51,2.51,0,0,0,2.51-2.51"/></g></g><path id="Fill-661" class="cls-4" d="M56.49,0A2.51,2.51,0,0,0,54-2.51,2.51,2.51,0,0,0,51.47,0,2.51,2.51,0,0,0,54,2.51,2.51,2.51,0,0,0,56.49,0"/><path id="Fill-663" class="cls-4" d="M56.49,50.15A2.51,2.51,0,1,0,54,52.66a2.51,2.51,0,0,0,2.51-2.51"/><path id="Fill-665" class="cls-4" d="M56.49,100.3A2.51,2.51,0,1,0,54,102.81a2.51,2.51,0,0,0,2.51-2.51"/><path id="Fill-667" class="cls-4" d="M56.49,150.45A2.51,2.51,0,1,0,54,153a2.51,2.51,0,0,0,2.51-2.51"/><path id="Fill-669" class="cls-4" d="M56.49,200.6A2.51,2.51,0,1,0,54,203.11a2.51,2.51,0,0,0,2.51-2.51"/><path id="Fill-671" class="cls-4" d="M56.49,250.75A2.51,2.51,0,1,0,54,253.26a2.51,2.51,0,0,0,2.51-2.51"/><path id="Fill-673" class="cls-4" d="M56.49,300.9A2.51,2.51,0,1,0,54,303.41a2.51,2.51,0,0,0,2.51-2.51"/><path id="Fill-675" class="cls-4" d="M56.49,351A2.51,2.51,0,1,0,54,353.55,2.51,2.51,0,0,0,56.49,351"/><path id="Fill-677" class="cls-4" d="M56.49,401.2A2.51,2.51,0,1,0,54,403.7a2.51,2.51,0,0,0,2.51-2.51"/><path id="Fill-679" class="cls-4" d="M56.49,451.34A2.51,2.51,0,1,0,54,453.85a2.51,2.51,0,0,0,2.51-2.51"/><path id="Fill-681" class="cls-4" d="M56.49,501.49A2.51,2.51,0,1,0,54,504a2.51,2.51,0,0,0,2.51-2.51"/><path id="Fill-683" class="cls-4" d="M56.49,551.64A2.51,2.51,0,1,0,54,554.15a2.51,2.51,0,0,0,2.51-2.51"/><path id="Fill-685" class="cls-4" d="M56.49,601.79A2.51,2.51,0,1,0,54,604.3a2.51,2.51,0,0,0,2.51-2.51"/><path id="Fill-687" class="cls-4" d="M56.49,651.94A2.51,2.51,0,1,0,54,654.45a2.51,2.51,0,0,0,2.51-2.51"/><path id="Fill-689" class="cls-4" d="M56.49,702.09A2.51,2.51,0,1,0,54,704.6a2.51,2.51,0,0,0,2.51-2.51"/><path id="Fill-691" class="cls-4" d="M56.49,752.24A2.51,2.51,0,1,0,54,754.75a2.51,2.51,0,0,0,2.51-2.51"/><path id="Fill-693" class="cls-4" d="M56.49,802.39A2.51,2.51,0,1,0,54,804.9a2.51,2.51,0,0,0,2.51-2.51"/><path id="Fill-695" class="cls-4" d="M56.49,852.54A2.51,2.51,0,1,0,54,855.05a2.51,2.51,0,0,0,2.51-2.51"/><path id="Fill-697" class="cls-4" d="M56.49,902.69A2.51,2.51,0,1,0,54,905.2a2.51,2.51,0,0,0,2.51-2.51"/><path id="Fill-699" class="cls-4" d="M56.49,952.84A2.51,2.51,0,1,0,54,955.35a2.51,2.51,0,0,0,2.51-2.51"/><path id="Fill-701" class="cls-4" d="M56.49,1003A2.51,2.51,0,1,0,54,1005.5a2.51,2.51,0,0,0,2.51-2.51"/><path id="Fill-703" class="cls-4" d="M56.49,1053.14a2.51,2.51,0,1,0-2.51,2.51,2.51,2.51,0,0,0,2.51-2.51"/><g id="Group-712"><g class="cls-27"><path id="Fill-710" class="cls-4" d="M2.51,0A2.51,2.51,0,0,0,0-2.51,2.51,2.51,0,0,0-2.51,0,2.51,2.51,0,0,0,0,2.51,2.51,2.51,0,0,0,2.51,0"/></g></g><g id="Group-715"><g class="cls-28"><path id="Fill-713" class="cls-4" d="M2.51,50.15A2.51,2.51,0,0,0,0,47.64a2.51,2.51,0,0,0-2.51,2.51A2.51,2.51,0,0,0,0,52.66a2.51,2.51,0,0,0,2.51-2.51"/></g></g><g id="Group-718"><g class="cls-29"><path id="Fill-716" class="cls-4" d="M2.51,100.3A2.51,2.51,0,0,0,0,97.79a2.51,2.51,0,0,0-2.51,2.51A2.51,2.51,0,0,0,0,102.81a2.51,2.51,0,0,0,2.51-2.51"/></g></g><g id="Group-721"><g class="cls-30"><path id="Fill-719" class="cls-4" d="M2.51,150.45A2.51,2.51,0,0,0,0,147.94a2.51,2.51,0,0,0-2.51,2.51A2.51,2.51,0,0,0,0,153a2.51,2.51,0,0,0,2.51-2.51"/></g></g><g id="Group-724"><g class="cls-31"><path id="Fill-722" class="cls-4" d="M2.51,200.6A2.51,2.51,0,0,0,0,198.09a2.51,2.51,0,0,0-2.51,2.51A2.51,2.51,0,0,0,0,203.11a2.51,2.51,0,0,0,2.51-2.51"/></g></g><g id="Group-727"><g class="cls-32"><path id="Fill-725" class="cls-4" d="M2.51,250.75A2.51,2.51,0,0,0,0,248.24a2.51,2.51,0,0,0-2.51,2.51A2.51,2.51,0,0,0,0,253.26a2.51,2.51,0,0,0,2.51-2.51"/></g></g><g id="Group-730"><g class="cls-33"><path id="Fill-728" class="cls-4" d="M2.51,300.9A2.51,2.51,0,0,0,0,298.39a2.51,2.51,0,0,0-2.51,2.51A2.51,2.51,0,0,0,0,303.41a2.51,2.51,0,0,0,2.51-2.51"/></g></g><g id="Group-733"><g class="cls-34"><path id="Fill-731" class="cls-4" d="M2.51,351A2.51,2.51,0,0,0,0,348.54,2.51,2.51,0,0,0-2.51,351,2.51,2.51,0,0,0,0,353.55,2.51,2.51,0,0,0,2.51,351"/></g></g><g id="Group-736"><g class="cls-35"><path id="Fill-734" class="cls-4" d="M2.51,401.2A2.51,2.51,0,0,0,0,398.69a2.51,2.51,0,0,0-2.51,2.51A2.51,2.51,0,0,0,0,403.7a2.51,2.51,0,0,0,2.51-2.51"/></g></g><g id="Group-739"><g class="cls-36"><path id="Fill-737" class="cls-4" d="M2.51,451.34A2.51,2.51,0,0,0,0,448.83a2.51,2.51,0,0,0-2.51,2.51A2.51,2.51,0,0,0,0,453.85a2.51,2.51,0,0,0,2.51-2.51"/></g></g><g id="Group-742"><g class="cls-37"><path id="Fill-740" class="cls-4" d="M2.51,501.49A2.51,2.51,0,0,0,0,499a2.51,2.51,0,0,0-2.51,2.51A2.51,2.51,0,0,0,0,504a2.51,2.51,0,0,0,2.51-2.51"/></g></g><g id="Group-745"><g class="cls-38"><path id="Fill-743" class="cls-4" d="M2.51,551.64A2.51,2.51,0,0,0,0,549.13a2.51,2.51,0,0,0-2.51,2.51A2.51,2.51,0,0,0,0,554.15a2.51,2.51,0,0,0,2.51-2.51"/></g></g><g id="Group-748"><g class="cls-39"><path id="Fill-746" class="cls-4" d="M2.51,601.79A2.51,2.51,0,0,0,0,599.28a2.51,2.51,0,1,0,0,5,2.51,2.51,0,0,0,2.51-2.51"/></g></g><g id="Group-751"><g class="cls-40"><path id="Fill-749" class="cls-4" d="M2.51,651.94A2.51,2.51,0,0,0,0,649.43a2.51,2.51,0,0,0,0,5,2.51,2.51,0,0,0,2.51-2.51"/></g></g><g id="Group-754"><g class="cls-41"><path id="Fill-752" class="cls-4" d="M2.51,702.09A2.51,2.51,0,0,0,0,699.58a2.51,2.51,0,1,0,0,5,2.51,2.51,0,0,0,2.51-2.51"/></g></g><g id="Group-757"><g class="cls-42"><path id="Fill-755" class="cls-4" d="M2.51,752.24A2.51,2.51,0,0,0,0,749.73a2.51,2.51,0,0,0,0,5,2.51,2.51,0,0,0,2.51-2.51"/></g></g><g id="Group-760"><g class="cls-43"><path id="Fill-758" class="cls-4" d="M2.51,802.39A2.51,2.51,0,0,0,0,799.88a2.51,2.51,0,1,0,0,5,2.51,2.51,0,0,0,2.51-2.51"/></g></g><g id="Group-763"><g class="cls-44"><path id="Fill-761" class="cls-4" d="M2.51,852.54A2.51,2.51,0,0,0,0,850a2.51,2.51,0,0,0,0,5,2.51,2.51,0,0,0,2.51-2.51"/></g></g><g id="Group-766"><g class="cls-45"><path id="Fill-764" class="cls-4" d="M2.51,902.69A2.51,2.51,0,0,0,0,900.18a2.51,2.51,0,0,0-2.51,2.51A2.51,2.51,0,0,0,0,905.2a2.51,2.51,0,0,0,2.51-2.51"/></g></g><g id="Group-769"><g class="cls-46"><path id="Fill-767" class="cls-4" d="M2.51,952.84A2.51,2.51,0,0,0,0,950.33a2.51,2.51,0,0,0-2.51,2.51A2.51,2.51,0,0,0,0,955.35a2.51,2.51,0,0,0,2.51-2.51"/></g></g><g id="Group-772"><g class="cls-47"><path id="Fill-770" class="cls-4" d="M2.51,1003A2.51,2.51,0,0,0,0,1000.48,2.51,2.51,0,0,0-2.51,1003,2.51,2.51,0,0,0,0,1005.5,2.51,2.51,0,0,0,2.51,1003"/></g></g><g id="Group-775"><g class="cls-48"><path id="Fill-773" class="cls-4" d="M2.51,1053.14A2.51,2.51,0,0,0,0,1050.63a2.51,2.51,0,0,0-2.51,2.51A2.51,2.51,0,0,0,0,1055.65a2.51,2.51,0,0,0,2.51-2.51"/></g></g><path id="Fill-782" class="cls-4" d="M110.48,0A2.51,2.51,0,0,0,108-2.51,2.51,2.51,0,0,0,105.46,0,2.51,2.51,0,0,0,108,2.51,2.51,2.51,0,0,0,110.48,0"/><path id="Fill-784" class="cls-4" d="M110.48,50.15A2.51,2.51,0,1,0,108,52.66a2.51,2.51,0,0,0,2.51-2.51"/><path id="Fill-786" class="cls-4" d="M110.48,100.3a2.51,2.51,0,1,0-2.51,2.51,2.51,2.51,0,0,0,2.51-2.51"/><path id="Fill-788" class="cls-4" d="M110.48,150.45A2.51,2.51,0,1,0,108,153a2.51,2.51,0,0,0,2.51-2.51"/><path id="Fill-790" class="cls-4" d="M110.48,200.6a2.51,2.51,0,1,0-2.51,2.51,2.51,2.51,0,0,0,2.51-2.51"/><path id="Fill-792" class="cls-4" d="M110.48,250.75a2.51,2.51,0,1,0-2.51,2.51,2.51,2.51,0,0,0,2.51-2.51"/><path id="Fill-794" class="cls-4" d="M110.48,300.9a2.51,2.51,0,1,0-2.51,2.51,2.51,2.51,0,0,0,2.51-2.51"/><path id="Fill-796" class="cls-4" d="M110.48,351a2.51,2.51,0,1,0-2.51,2.51,2.51,2.51,0,0,0,2.51-2.51"/><path id="Fill-798" class="cls-4" d="M110.48,401.2A2.51,2.51,0,1,0,108,403.7a2.51,2.51,0,0,0,2.51-2.51"/><path id="Fill-800" class="cls-4" d="M110.48,451.34a2.51,2.51,0,1,0-2.51,2.51,2.51,2.51,0,0,0,2.51-2.51"/><path id="Fill-802" class="cls-4" d="M110.48,501.49A2.51,2.51,0,1,0,108,504a2.51,2.51,0,0,0,2.51-2.51"/><path id="Fill-804" class="cls-4" d="M110.48,551.64a2.51,2.51,0,1,0-2.51,2.51,2.51,2.51,0,0,0,2.51-2.51"/><path id="Fill-806" class="cls-4" d="M110.48,601.79A2.51,2.51,0,1,0,108,604.3a2.51,2.51,0,0,0,2.51-2.51"/><path id="Fill-808" class="cls-4" d="M110.48,651.94a2.51,2.51,0,1,0-2.51,2.51,2.51,2.51,0,0,0,2.51-2.51"/><path id="Fill-810" class="cls-4" d="M110.48,702.09A2.51,2.51,0,1,0,108,704.6a2.51,2.51,0,0,0,2.51-2.51"/><path id="Fill-812" class="cls-4" d="M110.48,752.24a2.51,2.51,0,1,0-2.51,2.51,2.51,2.51,0,0,0,2.51-2.51"/><path id="Fill-814" class="cls-4" d="M110.48,802.39A2.51,2.51,0,1,0,108,804.9a2.51,2.51,0,0,0,2.51-2.51"/><path id="Fill-816" class="cls-4" d="M110.48,852.54a2.51,2.51,0,1,0-2.51,2.51,2.51,2.51,0,0,0,2.51-2.51"/><path id="Fill-818" class="cls-4" d="M110.48,902.69A2.51,2.51,0,1,0,108,905.2a2.51,2.51,0,0,0,2.51-2.51"/><path id="Fill-820" class="cls-4" d="M110.48,952.84a2.51,2.51,0,1,0-2.51,2.51,2.51,2.51,0,0,0,2.51-2.51"/><path id="Fill-822" class="cls-4" d="M110.48,1003a2.51,2.51,0,1,0-2.51,2.51,2.51,2.51,0,0,0,2.51-2.51"/><path id="Fill-824" class="cls-4" d="M110.48,1053.14a2.51,2.51,0,1,0-2.51,2.51,2.51,2.51,0,0,0,2.51-2.51"/><path id="Fill-831" class="cls-4" d="M164.46,0A2.51,2.51,0,0,0,162-2.51,2.51,2.51,0,0,0,159.44,0,2.51,2.51,0,0,0,162,2.51,2.51,2.51,0,0,0,164.46,0"/><path id="Fill-833" class="cls-4" d="M164.46,50.15A2.51,2.51,0,1,0,162,52.66a2.51,2.51,0,0,0,2.51-2.51"/><path id="Fill-835" class="cls-4" d="M164.46,100.3a2.51,2.51,0,1,0-2.51,2.51,2.51,2.51,0,0,0,2.51-2.51"/><path id="Fill-837" class="cls-4" d="M164.46,150.45A2.51,2.51,0,1,0,162,153a2.51,2.51,0,0,0,2.51-2.51"/><path id="Fill-839" class="cls-4" d="M164.46,200.6a2.51,2.51,0,1,0-2.51,2.51,2.51,2.51,0,0,0,2.51-2.51"/><path id="Fill-841" class="cls-4" d="M164.46,250.75a2.51,2.51,0,1,0-2.51,2.51,2.51,2.51,0,0,0,2.51-2.51"/><path id="Fill-843" class="cls-4" d="M164.46,300.9a2.51,2.51,0,1,0-2.51,2.51,2.51,2.51,0,0,0,2.51-2.51"/><path id="Fill-845" class="cls-4" d="M164.46,351a2.51,2.51,0,1,0-2.51,2.51,2.51,2.51,0,0,0,2.51-2.51"/><path id="Fill-847" class="cls-4" d="M164.46,401.2A2.51,2.51,0,1,0,162,403.7a2.51,2.51,0,0,0,2.51-2.51"/><path id="Fill-849" class="cls-4" d="M164.46,451.34a2.51,2.51,0,1,0-2.51,2.51,2.51,2.51,0,0,0,2.51-2.51"/><path id="Fill-851" class="cls-4" d="M164.46,501.49A2.51,2.51,0,1,0,162,504a2.51,2.51,0,0,0,2.51-2.51"/><path id="Fill-853" class="cls-4" d="M164.46,551.64a2.51,2.51,0,1,0-2.51,2.51,2.51,2.51,0,0,0,2.51-2.51"/><path id="Fill-855" class="cls-4" d="M164.46,601.79A2.51,2.51,0,1,0,162,604.3a2.51,2.51,0,0,0,2.51-2.51"/><path id="Fill-857" class="cls-4" d="M164.46,651.94a2.51,2.51,0,1,0-2.51,2.51,2.51,2.51,0,0,0,2.51-2.51"/><path id="Fill-859" class="cls-4" d="M164.46,702.09A2.51,2.51,0,1,0,162,704.6a2.51,2.51,0,0,0,2.51-2.51"/><path id="Fill-861" class="cls-4" d="M164.46,752.24a2.51,2.51,0,1,0-2.51,2.51,2.51,2.51,0,0,0,2.51-2.51"/><path id="Fill-863" class="cls-4" d="M164.46,802.39A2.51,2.51,0,1,0,162,804.9a2.51,2.51,0,0,0,2.51-2.51"/><path id="Fill-865" class="cls-4" d="M164.46,852.54a2.51,2.51,0,1,0-2.51,2.51,2.51,2.51,0,0,0,2.51-2.51"/><path id="Fill-867" class="cls-4" d="M164.46,902.69A2.51,2.51,0,1,0,162,905.2a2.51,2.51,0,0,0,2.51-2.51"/><path id="Fill-869" class="cls-4" d="M164.46,952.84a2.51,2.51,0,1,0-2.51,2.51,2.51,2.51,0,0,0,2.51-2.51"/><path id="Fill-871" class="cls-4" d="M164.46,1003a2.51,2.51,0,1,0-2.51,2.51,2.51,2.51,0,0,0,2.51-2.51"/><path id="Fill-873" class="cls-4" d="M164.46,1053.14a2.51,2.51,0,1,0-2.51,2.51,2.51,2.51,0,0,0,2.51-2.51"/><path id="Fill-880" class="cls-4" d="M218.44,0a2.51,2.51,0,0,0-2.51-2.51A2.51,2.51,0,0,0,213.42,0a2.51,2.51,0,0,0,2.51,2.51A2.51,2.51,0,0,0,218.44,0"/><path id="Fill-882" class="cls-4" d="M218.44,50.15a2.51,2.51,0,1,0-2.51,2.51,2.51,2.51,0,0,0,2.51-2.51"/><path id="Fill-884" class="cls-4" d="M218.44,100.3a2.51,2.51,0,1,0-2.51,2.51,2.51,2.51,0,0,0,2.51-2.51"/><path id="Fill-886" class="cls-4" d="M218.44,150.45a2.51,2.51,0,1,0-2.51,2.51,2.51,2.51,0,0,0,2.51-2.51"/><path id="Fill-888" class="cls-4" d="M218.44,200.6a2.51,2.51,0,1,0-2.51,2.51,2.51,2.51,0,0,0,2.51-2.51"/><path id="Fill-890" class="cls-4" d="M218.44,250.75a2.51,2.51,0,1,0-2.51,2.51,2.51,2.51,0,0,0,2.51-2.51"/><path id="Fill-892" class="cls-4" d="M218.44,300.9a2.51,2.51,0,1,0-2.51,2.51,2.51,2.51,0,0,0,2.51-2.51"/><path id="Fill-894" class="cls-4" d="M218.44,351a2.51,2.51,0,1,0-2.51,2.51,2.51,2.51,0,0,0,2.51-2.51"/><path id="Fill-896" class="cls-4" d="M218.44,401.2a2.51,2.51,0,1,0-2.51,2.51,2.51,2.51,0,0,0,2.51-2.51"/><path id="Fill-898" class="cls-4" d="M218.44,451.34a2.51,2.51,0,1,0-2.51,2.51,2.51,2.51,0,0,0,2.51-2.51"/><path id="Fill-900" class="cls-4" d="M218.44,501.49a2.51,2.51,0,1,0-2.51,2.51,2.51,2.51,0,0,0,2.51-2.51"/><path id="Fill-902" class="cls-4" d="M218.44,551.64a2.51,2.51,0,1,0-2.51,2.51,2.51,2.51,0,0,0,2.51-2.51"/><path id="Fill-904" class="cls-4" d="M218.44,601.79a2.51,2.51,0,1,0-2.51,2.51,2.51,2.51,0,0,0,2.51-2.51"/><path id="Fill-906" class="cls-4" d="M218.44,651.94a2.51,2.51,0,1,0-2.51,2.51,2.51,2.51,0,0,0,2.51-2.51"/><path id="Fill-908" class="cls-4" d="M218.44,702.09a2.51,2.51,0,1,0-2.51,2.51,2.51,2.51,0,0,0,2.51-2.51"/><path id="Fill-910" class="cls-4" d="M218.44,752.24a2.51,2.51,0,1,0-2.51,2.51,2.51,2.51,0,0,0,2.51-2.51"/><path id="Fill-912" class="cls-4" d="M218.44,802.39a2.51,2.51,0,1,0-2.51,2.51,2.51,2.51,0,0,0,2.51-2.51"/><path id="Fill-914" class="cls-4" d="M218.44,852.54a2.51,2.51,0,1,0-2.51,2.51,2.51,2.51,0,0,0,2.51-2.51"/><path id="Fill-916" class="cls-4" d="M218.44,902.69a2.51,2.51,0,1,0-2.51,2.51,2.51,2.51,0,0,0,2.51-2.51"/><path id="Fill-918" class="cls-4" d="M218.44,952.84a2.51,2.51,0,1,0-2.51,2.51,2.51,2.51,0,0,0,2.51-2.51"/><path id="Fill-920" class="cls-4" d="M218.44,1003a2.51,2.51,0,1,0-2.51,2.51,2.51,2.51,0,0,0,2.51-2.51"/><path id="Fill-922" class="cls-4" d="M218.44,1053.14a2.51,2.51,0,1,0-2.51,2.51,2.51,2.51,0,0,0,2.51-2.51"/><path id="Fill-929" class="cls-4" d="M326.41,0a2.51,2.51,0,0,0-2.51-2.51A2.51,2.51,0,0,0,321.39,0a2.51,2.51,0,0,0,2.51,2.51A2.51,2.51,0,0,0,326.41,0"/><path id="Fill-931" class="cls-4" d="M326.41,50.15a2.51,2.51,0,1,0-2.51,2.51,2.51,2.51,0,0,0,2.51-2.51"/><path id="Fill-933" class="cls-4" d="M326.41,100.3a2.51,2.51,0,1,0-2.51,2.51,2.51,2.51,0,0,0,2.51-2.51"/><path id="Fill-935" class="cls-4" d="M326.41,150.45A2.51,2.51,0,1,0,323.9,153a2.51,2.51,0,0,0,2.51-2.51"/><path id="Fill-937" class="cls-4" d="M326.41,200.6a2.51,2.51,0,1,0-2.51,2.51,2.51,2.51,0,0,0,2.51-2.51"/><path id="Fill-939" class="cls-4" d="M326.41,250.75a2.51,2.51,0,1,0-2.51,2.51,2.51,2.51,0,0,0,2.51-2.51"/><path id="Fill-941" class="cls-4" d="M326.41,300.9a2.51,2.51,0,1,0-2.51,2.51,2.51,2.51,0,0,0,2.51-2.51"/><path id="Fill-943" class="cls-4" d="M326.41,351a2.51,2.51,0,1,0-2.51,2.51,2.51,2.51,0,0,0,2.51-2.51"/><path id="Fill-945" class="cls-4" d="M326.41,401.2a2.51,2.51,0,1,0-2.51,2.51,2.51,2.51,0,0,0,2.51-2.51"/><path id="Fill-947" class="cls-4" d="M326.41,451.34a2.51,2.51,0,1,0-2.51,2.51,2.51,2.51,0,0,0,2.51-2.51"/><path id="Fill-949" class="cls-4" d="M326.41,501.49A2.51,2.51,0,1,0,323.9,504a2.51,2.51,0,0,0,2.51-2.51"/><path id="Fill-951" class="cls-4" d="M326.41,551.64a2.51,2.51,0,1,0-2.51,2.51,2.51,2.51,0,0,0,2.51-2.51"/><path id="Fill-953" class="cls-4" d="M326.41,601.79a2.51,2.51,0,1,0-2.51,2.51,2.51,2.51,0,0,0,2.51-2.51"/><path id="Fill-955" class="cls-4" d="M326.41,651.94a2.51,2.51,0,1,0-2.51,2.51,2.51,2.51,0,0,0,2.51-2.51"/><path id="Fill-957" class="cls-4" d="M326.41,702.09a2.51,2.51,0,1,0-2.51,2.51,2.51,2.51,0,0,0,2.51-2.51"/><path id="Fill-959" class="cls-4" d="M326.41,752.24a2.51,2.51,0,1,0-2.51,2.51,2.51,2.51,0,0,0,2.51-2.51"/><path id="Fill-961" class="cls-4" d="M326.41,802.39a2.51,2.51,0,1,0-2.51,2.51,2.51,2.51,0,0,0,2.51-2.51"/><path id="Fill-963" class="cls-4" d="M326.41,852.54a2.51,2.51,0,1,0-2.51,2.51,2.51,2.51,0,0,0,2.51-2.51"/><path id="Fill-965" class="cls-4" d="M326.41,902.69a2.51,2.51,0,1,0-2.51,2.51,2.51,2.51,0,0,0,2.51-2.51"/><path id="Fill-967" class="cls-4" d="M326.41,952.84a2.51,2.51,0,1,0-2.51,2.51,2.51,2.51,0,0,0,2.51-2.51"/><path id="Fill-969" class="cls-4" d="M326.41,1003a2.51,2.51,0,1,0-2.51,2.51,2.51,2.51,0,0,0,2.51-2.51"/><path id="Fill-971" class="cls-4" d="M326.41,1053.14a2.51,2.51,0,1,0-2.51,2.51,2.51,2.51,0,0,0,2.51-2.51"/><path id="Fill-978" class="cls-4" d="M272.43,0a2.51,2.51,0,0,0-2.51-2.51A2.51,2.51,0,0,0,267.41,0a2.51,2.51,0,0,0,2.51,2.51A2.51,2.51,0,0,0,272.43,0"/><path id="Fill-980" class="cls-4" d="M272.43,50.15a2.51,2.51,0,1,0-2.51,2.51,2.51,2.51,0,0,0,2.51-2.51"/><path id="Fill-982" class="cls-4" d="M272.43,100.3a2.51,2.51,0,1,0-2.51,2.51,2.51,2.51,0,0,0,2.51-2.51"/><path id="Fill-984" class="cls-4" d="M272.43,150.45a2.51,2.51,0,1,0-2.51,2.51,2.51,2.51,0,0,0,2.51-2.51"/><path id="Fill-986" class="cls-4" d="M272.43,200.6a2.51,2.51,0,1,0-2.51,2.51,2.51,2.51,0,0,0,2.51-2.51"/><path id="Fill-988" class="cls-4" d="M272.43,250.75a2.51,2.51,0,1,0-2.51,2.51,2.51,2.51,0,0,0,2.51-2.51"/><path id="Fill-990" class="cls-4" d="M272.43,300.9a2.51,2.51,0,1,0-2.51,2.51,2.51,2.51,0,0,0,2.51-2.51"/><path id="Fill-992" class="cls-4" d="M272.43,351a2.51,2.51,0,1,0-2.51,2.51,2.51,2.51,0,0,0,2.51-2.51"/><path id="Fill-994" class="cls-4" d="M272.43,401.2a2.51,2.51,0,1,0-2.51,2.51,2.51,2.51,0,0,0,2.51-2.51"/><path id="Fill-996" class="cls-4" d="M272.43,451.34a2.51,2.51,0,1,0-2.51,2.51,2.51,2.51,0,0,0,2.51-2.51"/><path id="Fill-998" class="cls-4" d="M272.43,501.49a2.51,2.51,0,1,0-2.51,2.51,2.51,2.51,0,0,0,2.51-2.51"/><path id="Fill-1000" class="cls-4" d="M272.43,551.64a2.51,2.51,0,1,0-2.51,2.51,2.51,2.51,0,0,0,2.51-2.51"/><path id="Fill-1002" class="cls-4" d="M272.43,601.79a2.51,2.51,0,1,0-2.51,2.51,2.51,2.51,0,0,0,2.51-2.51"/><path id="Fill-1004" class="cls-4" d="M272.43,651.94a2.51,2.51,0,1,0-2.51,2.51,2.51,2.51,0,0,0,2.51-2.51"/><path id="Fill-1006" class="cls-4" d="M272.43,702.09a2.51,2.51,0,1,0-2.51,2.51,2.51,2.51,0,0,0,2.51-2.51"/><path id="Fill-1008" class="cls-4" d="M272.43,752.24a2.51,2.51,0,1,0-2.51,2.51,2.51,2.51,0,0,0,2.51-2.51"/><path id="Fill-1010" class="cls-4" d="M272.43,802.39a2.51,2.51,0,1,0-2.51,2.51,2.51,2.51,0,0,0,2.51-2.51"/><path id="Fill-1012" class="cls-4" d="M272.43,852.54a2.51,2.51,0,1,0-2.51,2.51,2.51,2.51,0,0,0,2.51-2.51"/><path id="Fill-1014" class="cls-4" d="M272.43,902.69a2.51,2.51,0,1,0-2.51,2.51,2.51,2.51,0,0,0,2.51-2.51"/><path id="Fill-1016" class="cls-4" d="M272.43,952.84a2.51,2.51,0,1,0-2.51,2.51,2.51,2.51,0,0,0,2.51-2.51"/><path id="Fill-1018" class="cls-4" d="M272.43,1003a2.51,2.51,0,1,0-2.51,2.51,2.51,2.51,0,0,0,2.51-2.51"/><path id="Fill-1020" class="cls-4" d="M272.43,1053.14a2.51,2.51,0,1,0-2.51,2.51,2.51,2.51,0,0,0,2.51-2.51"/><path id="Fill-1027" class="cls-4" d="M380.39,0a2.51,2.51,0,0,0-2.51-2.51A2.51,2.51,0,0,0,375.37,0a2.51,2.51,0,0,0,2.51,2.51A2.51,2.51,0,0,0,380.39,0"/><path id="Fill-1029" class="cls-4" d="M380.39,50.15a2.51,2.51,0,1,0-2.51,2.51,2.51,2.51,0,0,0,2.51-2.51"/><path id="Fill-1031" class="cls-4" d="M380.39,100.3a2.51,2.51,0,1,0-2.51,2.51,2.51,2.51,0,0,0,2.51-2.51"/><path id="Fill-1033" class="cls-4" d="M380.39,150.45a2.51,2.51,0,1,0-2.51,2.51,2.51,2.51,0,0,0,2.51-2.51"/><path id="Fill-1035" class="cls-4" d="M380.39,200.6a2.51,2.51,0,1,0-2.51,2.51,2.51,2.51,0,0,0,2.51-2.51"/><path id="Fill-1037" class="cls-4" d="M380.39,250.75a2.51,2.51,0,1,0-2.51,2.51,2.51,2.51,0,0,0,2.51-2.51"/><path id="Fill-1039" class="cls-4" d="M380.39,300.9a2.51,2.51,0,1,0-2.51,2.51,2.51,2.51,0,0,0,2.51-2.51"/><path id="Fill-1041" class="cls-4" d="M380.39,351a2.51,2.51,0,1,0-2.51,2.51,2.51,2.51,0,0,0,2.51-2.51"/><path id="Fill-1043" class="cls-4" d="M380.39,401.2a2.51,2.51,0,1,0-2.51,2.51,2.51,2.51,0,0,0,2.51-2.51"/><path id="Fill-1045" class="cls-4" d="M380.39,451.34a2.51,2.51,0,1,0-2.51,2.51,2.51,2.51,0,0,0,2.51-2.51"/><path id="Fill-1047" class="cls-4" d="M380.39,501.49a2.51,2.51,0,1,0-2.51,2.51,2.51,2.51,0,0,0,2.51-2.51"/><path id="Fill-1049" class="cls-4" d="M380.39,551.64a2.51,2.51,0,1,0-2.51,2.51,2.51,2.51,0,0,0,2.51-2.51"/><path id="Fill-1051" class="cls-4" d="M380.39,601.79a2.51,2.51,0,1,0-2.51,2.51,2.51,2.51,0,0,0,2.51-2.51"/><path id="Fill-1053" class="cls-4" d="M380.39,651.94a2.51,2.51,0,1,0-2.51,2.51,2.51,2.51,0,0,0,2.51-2.51"/><path id="Fill-1055" class="cls-4" d="M380.39,702.09a2.51,2.51,0,1,0-2.51,2.51,2.51,2.51,0,0,0,2.51-2.51"/><path id="Fill-1057" class="cls-4" d="M380.39,752.24a2.51,2.51,0,1,0-2.51,2.51,2.51,2.51,0,0,0,2.51-2.51"/><path id="Fill-1059" class="cls-4" d="M380.39,802.39a2.51,2.51,0,1,0-2.51,2.51,2.51,2.51,0,0,0,2.51-2.51"/><path id="Fill-1061" class="cls-4" d="M380.39,852.54a2.51,2.51,0,1,0-2.51,2.51,2.51,2.51,0,0,0,2.51-2.51"/><path id="Fill-1063" class="cls-4" d="M380.39,902.69a2.51,2.51,0,1,0-2.51,2.51,2.51,2.51,0,0,0,2.51-2.51"/><path id="Fill-1065" class="cls-4" d="M380.39,952.84a2.51,2.51,0,1,0-2.51,2.51,2.51,2.51,0,0,0,2.51-2.51"/><path id="Fill-1067" class="cls-4" d="M380.39,1003a2.51,2.51,0,1,0-2.51,2.51,2.51,2.51,0,0,0,2.51-2.51"/><path id="Fill-1069" class="cls-4" d="M380.39,1053.14a2.51,2.51,0,1,0-2.51,2.51,2.51,2.51,0,0,0,2.51-2.51"/><path id="Fill-1076" class="cls-4" d="M434.38,0a2.51,2.51,0,0,0-2.51-2.51A2.51,2.51,0,0,0,429.36,0a2.51,2.51,0,0,0,2.51,2.51A2.51,2.51,0,0,0,434.38,0"/><path id="Fill-1078" class="cls-4" d="M434.38,50.15a2.51,2.51,0,1,0-2.51,2.51,2.51,2.51,0,0,0,2.51-2.51"/><path id="Fill-1080" class="cls-4" d="M434.38,100.3a2.51,2.51,0,1,0-2.51,2.51,2.51,2.51,0,0,0,2.51-2.51"/><path id="Fill-1082" class="cls-4" d="M434.38,150.45a2.51,2.51,0,1,0-2.51,2.51,2.51,2.51,0,0,0,2.51-2.51"/><path id="Fill-1084" class="cls-4" d="M434.38,200.6a2.51,2.51,0,1,0-2.51,2.51,2.51,2.51,0,0,0,2.51-2.51"/><path id="Fill-1086" class="cls-4" d="M434.38,250.75a2.51,2.51,0,1,0-2.51,2.51,2.51,2.51,0,0,0,2.51-2.51"/><path id="Fill-1088" class="cls-4" d="M434.38,300.9a2.51,2.51,0,1,0-2.51,2.51,2.51,2.51,0,0,0,2.51-2.51"/><path id="Fill-1090" class="cls-4" d="M434.38,351a2.51,2.51,0,1,0-2.51,2.51,2.51,2.51,0,0,0,2.51-2.51"/><path id="Fill-1092" class="cls-4" d="M434.38,401.2a2.51,2.51,0,1,0-2.51,2.51,2.51,2.51,0,0,0,2.51-2.51"/><path id="Fill-1094" class="cls-4" d="M434.38,451.34a2.51,2.51,0,1,0-2.51,2.51,2.51,2.51,0,0,0,2.51-2.51"/><path id="Fill-1096" class="cls-4" d="M434.38,501.49a2.51,2.51,0,1,0-2.51,2.51,2.51,2.51,0,0,0,2.51-2.51"/><path id="Fill-1098" class="cls-4" d="M434.38,551.64a2.51,2.51,0,1,0-2.51,2.51,2.51,2.51,0,0,0,2.51-2.51"/><path id="Fill-1100" class="cls-4" d="M434.38,601.79a2.51,2.51,0,1,0-2.51,2.51,2.51,2.51,0,0,0,2.51-2.51"/><path id="Fill-1102" class="cls-4" d="M434.38,651.94a2.51,2.51,0,1,0-2.51,2.51,2.51,2.51,0,0,0,2.51-2.51"/><path id="Fill-1104" class="cls-4" d="M434.38,702.09a2.51,2.51,0,1,0-2.51,2.51,2.51,2.51,0,0,0,2.51-2.51"/><path id="Fill-1106" class="cls-4" d="M434.38,752.24a2.51,2.51,0,1,0-2.51,2.51,2.51,2.51,0,0,0,2.51-2.51"/><path id="Fill-1108" class="cls-4" d="M434.38,802.39a2.51,2.51,0,1,0-2.51,2.51,2.51,2.51,0,0,0,2.51-2.51"/><path id="Fill-1110" class="cls-4" d="M434.38,852.54a2.51,2.51,0,1,0-2.51,2.51,2.51,2.51,0,0,0,2.51-2.51"/><path id="Fill-1112" class="cls-4" d="M434.38,902.69a2.51,2.51,0,1,0-2.51,2.51,2.51,2.51,0,0,0,2.51-2.51"/><path id="Fill-1114" class="cls-4" d="M434.38,952.84a2.51,2.51,0,1,0-2.51,2.51,2.51,2.51,0,0,0,2.51-2.51"/><path id="Fill-1116" class="cls-4" d="M434.38,1003a2.51,2.51,0,1,0-2.51,2.51,2.51,2.51,0,0,0,2.51-2.51"/><path id="Fill-1118" class="cls-4" d="M434.38,1053.14a2.51,2.51,0,1,0-2.51,2.51,2.51,2.51,0,0,0,2.51-2.51"/><path id="Fill-1125" class="cls-4" d="M488.36,0a2.51,2.51,0,0,0-2.51-2.51A2.51,2.51,0,0,0,483.34,0a2.51,2.51,0,0,0,2.51,2.51A2.51,2.51,0,0,0,488.36,0"/><path id="Fill-1127" class="cls-4" d="M488.36,50.15a2.51,2.51,0,1,0-2.51,2.51,2.51,2.51,0,0,0,2.51-2.51"/><path id="Fill-1129" class="cls-4" d="M488.36,100.3a2.51,2.51,0,1,0-2.51,2.51,2.51,2.51,0,0,0,2.51-2.51"/><path id="Fill-1131" class="cls-4" d="M488.36,150.45a2.51,2.51,0,1,0-2.51,2.51,2.51,2.51,0,0,0,2.51-2.51"/><path id="Fill-1133" class="cls-4" d="M488.36,200.6a2.51,2.51,0,1,0-2.51,2.51,2.51,2.51,0,0,0,2.51-2.51"/><path id="Fill-1135" class="cls-4" d="M488.36,250.75a2.51,2.51,0,1,0-2.51,2.51,2.51,2.51,0,0,0,2.51-2.51"/><path id="Fill-1137" class="cls-4" d="M488.36,300.9a2.51,2.51,0,1,0-2.51,2.51,2.51,2.51,0,0,0,2.51-2.51"/><path id="Fill-1139" class="cls-4" d="M488.36,351a2.51,2.51,0,1,0-2.51,2.51,2.51,2.51,0,0,0,2.51-2.51"/><path id="Fill-1141" class="cls-4" d="M488.36,401.2a2.51,2.51,0,1,0-2.51,2.51,2.51,2.51,0,0,0,2.51-2.51"/><path id="Fill-1143" class="cls-4" d="M488.36,451.34a2.51,2.51,0,1,0-2.51,2.51,2.51,2.51,0,0,0,2.51-2.51"/><path id="Fill-1145" class="cls-4" d="M488.36,501.49a2.51,2.51,0,1,0-2.51,2.51,2.51,2.51,0,0,0,2.51-2.51"/><path id="Fill-1147" class="cls-4" d="M488.36,551.64a2.51,2.51,0,1,0-2.51,2.51,2.51,2.51,0,0,0,2.51-2.51"/><path id="Fill-1149" class="cls-4" d="M488.36,601.79a2.51,2.51,0,1,0-2.51,2.51,2.51,2.51,0,0,0,2.51-2.51"/><path id="Fill-1151" class="cls-4" d="M488.36,651.94a2.51,2.51,0,1,0-2.51,2.51,2.51,2.51,0,0,0,2.51-2.51"/><path id="Fill-1153" class="cls-4" d="M488.36,702.09a2.51,2.51,0,1,0-2.51,2.51,2.51,2.51,0,0,0,2.51-2.51"/><path id="Fill-1155" class="cls-4" d="M488.36,752.24a2.51,2.51,0,1,0-2.51,2.51,2.51,2.51,0,0,0,2.51-2.51"/><path id="Fill-1157" class="cls-4" d="M488.36,802.39a2.51,2.51,0,1,0-2.51,2.51,2.51,2.51,0,0,0,2.51-2.51"/><path id="Fill-1159" class="cls-4" d="M488.36,852.54a2.51,2.51,0,1,0-2.51,2.51,2.51,2.51,0,0,0,2.51-2.51"/><path id="Fill-1161" class="cls-4" d="M488.36,902.69a2.51,2.51,0,1,0-2.51,2.51,2.51,2.51,0,0,0,2.51-2.51"/><path id="Fill-1163" class="cls-4" d="M488.36,952.84a2.51,2.51,0,1,0-2.51,2.51,2.51,2.51,0,0,0,2.51-2.51"/><path id="Fill-1165" class="cls-4" d="M488.36,1003a2.51,2.51,0,1,0-2.51,2.51,2.51,2.51,0,0,0,2.51-2.51"/><path id="Fill-1167" class="cls-4" d="M488.36,1053.14a2.51,2.51,0,1,0-2.51,2.51,2.51,2.51,0,0,0,2.51-2.51"/><path id="Fill-1174" class="cls-4" d="M542.34,0a2.51,2.51,0,0,0-2.51-2.51A2.51,2.51,0,0,0,537.32,0a2.51,2.51,0,0,0,2.51,2.51A2.51,2.51,0,0,0,542.34,0"/><path id="Fill-1176" class="cls-4" d="M542.34,50.15a2.51,2.51,0,1,0-2.51,2.51,2.51,2.51,0,0,0,2.51-2.51"/><path id="Fill-1178" class="cls-4" d="M542.34,100.3a2.51,2.51,0,1,0-2.51,2.51,2.51,2.51,0,0,0,2.51-2.51"/><path id="Fill-1180" class="cls-4" d="M542.34,150.45a2.51,2.51,0,1,0-2.51,2.51,2.51,2.51,0,0,0,2.51-2.51"/><path id="Fill-1182" class="cls-4" d="M542.34,200.6a2.51,2.51,0,1,0-2.51,2.51,2.51,2.51,0,0,0,2.51-2.51"/><path id="Fill-1184" class="cls-4" d="M542.34,250.75a2.51,2.51,0,1,0-2.51,2.51,2.51,2.51,0,0,0,2.51-2.51"/><path id="Fill-1186" class="cls-4" d="M542.34,300.9a2.51,2.51,0,1,0-2.51,2.51,2.51,2.51,0,0,0,2.51-2.51"/><path id="Fill-1188" class="cls-4" d="M542.34,351a2.51,2.51,0,1,0-2.51,2.51,2.51,2.51,0,0,0,2.51-2.51"/><path id="Fill-1190" class="cls-4" d="M542.34,401.2a2.51,2.51,0,1,0-2.51,2.51,2.51,2.51,0,0,0,2.51-2.51"/><path id="Fill-1192" class="cls-4" d="M542.34,451.34a2.51,2.51,0,1,0-2.51,2.51,2.51,2.51,0,0,0,2.51-2.51"/><path id="Fill-1194" class="cls-4" d="M542.34,501.49a2.51,2.51,0,1,0-2.51,2.51,2.51,2.51,0,0,0,2.51-2.51"/><path id="Fill-1196" class="cls-4" d="M542.34,551.64a2.51,2.51,0,1,0-2.51,2.51,2.51,2.51,0,0,0,2.51-2.51"/><path id="Fill-1198" class="cls-4" d="M542.34,601.79a2.51,2.51,0,1,0-2.51,2.51,2.51,2.51,0,0,0,2.51-2.51"/><path id="Fill-1200" class="cls-4" d="M542.34,651.94a2.51,2.51,0,1,0-2.51,2.51,2.51,2.51,0,0,0,2.51-2.51"/><path id="Fill-1202" class="cls-4" d="M542.34,702.09a2.51,2.51,0,1,0-2.51,2.51,2.51,2.51,0,0,0,2.51-2.51"/><path id="Fill-1204" class="cls-4" d="M542.34,752.24a2.51,2.51,0,1,0-2.51,2.51,2.51,2.51,0,0,0,2.51-2.51"/><path id="Fill-1206" class="cls-4" d="M542.34,802.39a2.51,2.51,0,1,0-2.51,2.51,2.51,2.51,0,0,0,2.51-2.51"/><path id="Fill-1208" class="cls-4" d="M542.34,852.54a2.51,2.51,0,1,0-2.51,2.51,2.51,2.51,0,0,0,2.51-2.51"/><path id="Fill-1210" class="cls-4" d="M542.34,902.69a2.51,2.51,0,1,0-2.51,2.51,2.51,2.51,0,0,0,2.51-2.51"/><path id="Fill-1212" class="cls-4" d="M542.34,952.84a2.51,2.51,0,1,0-2.51,2.51,2.51,2.51,0,0,0,2.51-2.51"/><path id="Fill-1214" class="cls-4" d="M542.34,1003a2.51,2.51,0,1,0-2.51,2.51,2.51,2.51,0,0,0,2.51-2.51"/><path id="Fill-1216" class="cls-4" d="M542.34,1053.14a2.51,2.51,0,1,0-2.51,2.51,2.51,2.51,0,0,0,2.51-2.51"/><path id="Fill-1223" class="cls-4" d="M596.33,0a2.51,2.51,0,0,0-2.51-2.51A2.51,2.51,0,0,0,591.31,0a2.51,2.51,0,0,0,2.51,2.51A2.51,2.51,0,0,0,596.33,0"/><path id="Fill-1225" class="cls-4" d="M596.33,50.15a2.51,2.51,0,1,0-2.51,2.51,2.51,2.51,0,0,0,2.51-2.51"/><path id="Fill-1227" class="cls-4" d="M596.33,100.3a2.51,2.51,0,1,0-2.51,2.51,2.51,2.51,0,0,0,2.51-2.51"/><path id="Fill-1229" class="cls-4" d="M596.33,150.45a2.51,2.51,0,1,0-2.51,2.51,2.51,2.51,0,0,0,2.51-2.51"/><path id="Fill-1231" class="cls-4" d="M596.33,200.6a2.51,2.51,0,1,0-2.51,2.51,2.51,2.51,0,0,0,2.51-2.51"/><path id="Fill-1233" class="cls-4" d="M596.33,250.75a2.51,2.51,0,1,0-2.51,2.51,2.51,2.51,0,0,0,2.51-2.51"/><path id="Fill-1235" class="cls-4" d="M596.33,300.9a2.51,2.51,0,1,0-2.51,2.51,2.51,2.51,0,0,0,2.51-2.51"/><path id="Fill-1237" class="cls-4" d="M596.33,351a2.51,2.51,0,1,0-2.51,2.51,2.51,2.51,0,0,0,2.51-2.51"/><path id="Fill-1239" class="cls-4" d="M596.33,401.2a2.51,2.51,0,1,0-2.51,2.51,2.51,2.51,0,0,0,2.51-2.51"/><path id="Fill-1241" class="cls-4" d="M596.33,451.34a2.51,2.51,0,1,0-2.51,2.51,2.51,2.51,0,0,0,2.51-2.51"/><path id="Fill-1243" class="cls-4" d="M596.33,501.49a2.51,2.51,0,1,0-2.51,2.51,2.51,2.51,0,0,0,2.51-2.51"/><path id="Fill-1245" class="cls-4" d="M596.33,551.64a2.51,2.51,0,1,0-2.51,2.51,2.51,2.51,0,0,0,2.51-2.51"/><path id="Fill-1247" class="cls-4" d="M596.33,601.79a2.51,2.51,0,1,0-2.51,2.51,2.51,2.51,0,0,0,2.51-2.51"/><path id="Fill-1249" class="cls-4" d="M596.33,651.94a2.51,2.51,0,1,0-2.51,2.51,2.51,2.51,0,0,0,2.51-2.51"/><path id="Fill-1251" class="cls-4" d="M596.33,702.09a2.51,2.51,0,1,0-2.51,2.51,2.51,2.51,0,0,0,2.51-2.51"/><path id="Fill-1253" class="cls-4" d="M596.33,752.24a2.51,2.51,0,1,0-2.51,2.51,2.51,2.51,0,0,0,2.51-2.51"/><path id="Fill-1255" class="cls-4" d="M596.33,802.39a2.51,2.51,0,1,0-2.51,2.51,2.51,2.51,0,0,0,2.51-2.51"/><path id="Fill-1257" class="cls-4" d="M596.33,852.54a2.51,2.51,0,1,0-2.51,2.51,2.51,2.51,0,0,0,2.51-2.51"/><path id="Fill-1259" class="cls-4" d="M596.33,902.69a2.51,2.51,0,1,0-2.51,2.51,2.51,2.51,0,0,0,2.51-2.51"/><path id="Fill-1261" class="cls-4" d="M596.33,952.84a2.51,2.51,0,1,0-2.51,2.51,2.51,2.51,0,0,0,2.51-2.51"/><path id="Fill-1263" class="cls-4" d="M596.33,1003a2.51,2.51,0,1,0-2.51,2.51,2.51,2.51,0,0,0,2.51-2.51"/><path id="Fill-1265" class="cls-4" d="M596.33,1053.14a2.51,2.51,0,1,0-2.51,2.51,2.51,2.51,0,0,0,2.51-2.51"/><path id="Fill-1272" class="cls-4" d="M650.31,0a2.51,2.51,0,0,0-2.51-2.51A2.51,2.51,0,0,0,645.29,0a2.51,2.51,0,0,0,2.51,2.51A2.51,2.51,0,0,0,650.31,0"/><path id="Fill-1274" class="cls-4" d="M650.31,50.15a2.51,2.51,0,1,0-2.51,2.51,2.51,2.51,0,0,0,2.51-2.51"/><path id="Fill-1276" class="cls-4" d="M650.31,100.3a2.51,2.51,0,1,0-2.51,2.51,2.51,2.51,0,0,0,2.51-2.51"/><path id="Fill-1278" class="cls-4" d="M650.31,150.45A2.51,2.51,0,1,0,647.8,153a2.51,2.51,0,0,0,2.51-2.51"/><path id="Fill-1280" class="cls-4" d="M650.31,200.6a2.51,2.51,0,1,0-2.51,2.51,2.51,2.51,0,0,0,2.51-2.51"/><path id="Fill-1282" class="cls-4" d="M650.31,250.75a2.51,2.51,0,1,0-2.51,2.51,2.51,2.51,0,0,0,2.51-2.51"/><path id="Fill-1284" class="cls-4" d="M650.31,300.9a2.51,2.51,0,1,0-2.51,2.51,2.51,2.51,0,0,0,2.51-2.51"/><path id="Fill-1286" class="cls-4" d="M650.31,351a2.51,2.51,0,1,0-2.51,2.51,2.51,2.51,0,0,0,2.51-2.51"/><path id="Fill-1288" class="cls-4" d="M650.31,401.2a2.51,2.51,0,1,0-2.51,2.51,2.51,2.51,0,0,0,2.51-2.51"/><path id="Fill-1290" class="cls-4" d="M650.31,451.34a2.51,2.51,0,1,0-2.51,2.51,2.51,2.51,0,0,0,2.51-2.51"/><path id="Fill-1292" class="cls-4" d="M650.31,501.49A2.51,2.51,0,1,0,647.8,504a2.51,2.51,0,0,0,2.51-2.51"/><path id="Fill-1294" class="cls-4" d="M650.31,551.64a2.51,2.51,0,1,0-2.51,2.51,2.51,2.51,0,0,0,2.51-2.51"/><path id="Fill-1296" class="cls-4" d="M650.31,601.79a2.51,2.51,0,1,0-2.51,2.51,2.51,2.51,0,0,0,2.51-2.51"/><path id="Fill-1298" class="cls-4" d="M650.31,651.94a2.51,2.51,0,1,0-2.51,2.51,2.51,2.51,0,0,0,2.51-2.51"/><path id="Fill-1300" class="cls-4" d="M650.31,702.09a2.51,2.51,0,1,0-2.51,2.51,2.51,2.51,0,0,0,2.51-2.51"/><path id="Fill-1302" class="cls-4" d="M650.31,752.24a2.51,2.51,0,1,0-2.51,2.51,2.51,2.51,0,0,0,2.51-2.51"/><path id="Fill-1304" class="cls-4" d="M650.31,802.39a2.51,2.51,0,1,0-2.51,2.51,2.51,2.51,0,0,0,2.51-2.51"/><path id="Fill-1306" class="cls-4" d="M650.31,852.54a2.51,2.51,0,1,0-2.51,2.51,2.51,2.51,0,0,0,2.51-2.51"/><path id="Fill-1308" class="cls-4" d="M650.31,902.69a2.51,2.51,0,1,0-2.51,2.51,2.51,2.51,0,0,0,2.51-2.51"/><path id="Fill-1310" class="cls-4" d="M650.31,952.84a2.51,2.51,0,1,0-2.51,2.51,2.51,2.51,0,0,0,2.51-2.51"/><path id="Fill-1312" class="cls-4" d="M650.31,1003a2.51,2.51,0,1,0-2.51,2.51,2.51,2.51,0,0,0,2.51-2.51"/><path id="Fill-1314" class="cls-4" d="M650.31,1053.14a2.51,2.51,0,1,0-2.51,2.51,2.51,2.51,0,0,0,2.51-2.51"/></g></g></g></g></svg>